<svg width="150" height="150" viewBox="0 0 150 150" fill="none" xmlns="http://www.w3.org/2000/svg">
<g id="coding">
<g id="Group 1321">
<circle id="Ellipse 1920" cx="75.0002" cy="74.999" r="75" fill="url(#paint0_linear_283_356)" fill-opacity="0.68"/>
<path id="Subtract" fill-rule="evenodd" clip-rule="evenodd" d="M11.8228 40.2158H138.178V39.2158H11.8228V40.2158ZM12.9312 113.369H138.178V112.369H12.9312V113.369Z" fill="white" fill-opacity="0.22"/>
<circle id="Ellipse 1921" cx="75.0002" cy="74.999" r="73" stroke="url(#paint1_linear_283_356)" stroke-width="4"/>
</g>
<g id="Group">
<path id="Vector" d="M79.8382 108.44H70.647C69.5631 108.443 68.5108 108.075 67.6655 107.397C66.8202 106.718 66.233 105.771 66.0017 104.712L64.8355 99.5358C62.9135 98.7174 61.0999 97.6648 59.4357 96.4021L54.4008 97.991C52.2398 98.657 49.8908 97.7423 48.8076 95.8134L44.2258 87.8879C43.692 86.9469 43.4896 85.8539 43.6509 84.7842C43.8122 83.7144 44.328 82.7297 45.1156 81.988L49.0176 78.4011C48.7825 76.326 48.7816 74.231 49.0148 72.1557L45.1322 68.5854C44.3415 67.8487 43.8209 66.8678 43.6541 65.8C43.4872 64.7322 43.6837 63.6393 44.212 62.6965L48.8214 54.724C49.8936 52.8172 52.2398 51.8942 54.3952 52.5657L59.4357 54.1547C61.1002 52.8925 62.9138 51.84 64.8355 51.021L66.0017 45.8423C66.2335 44.7839 66.821 43.837 67.6663 43.1591C68.5115 42.4813 69.5635 42.1136 70.647 42.1172H79.8382C82.0821 42.1172 83.9916 43.6509 84.4835 45.8451L85.6496 51.021C87.5716 51.8394 89.3853 52.8919 91.0494 54.1547L96.0844 52.5657C98.2398 51.8915 100.592 52.8145 101.678 54.7433L106.259 62.6689C107.356 64.6309 106.986 67.0489 105.369 68.5688L101.468 72.1557C101.702 74.2309 101.702 76.3259 101.468 78.4011L105.353 81.9714L105.369 81.988C106.986 83.5079 107.359 85.9231 106.273 87.8603L101.664 95.8328C100.589 97.7396 98.2426 98.6625 96.0899 97.991L91.0466 96.3993C89.3821 97.6615 87.5686 98.714 85.6469 99.533L84.4807 104.712C84.2505 105.771 83.6639 106.718 82.8189 107.397C81.9739 108.075 80.9218 108.443 79.8382 108.44ZM59.8613 92.022C60.3366 92.022 60.8036 92.1851 61.1822 92.4946C63.0752 94.0559 65.1478 95.258 67.3392 96.0677C67.6633 96.1879 67.9523 96.387 68.1801 96.6471C68.4079 96.9072 68.5671 97.22 68.6435 97.5572L70.0501 103.803C70.0805 103.94 70.1565 104.064 70.2659 104.153C70.3752 104.242 70.5114 104.292 70.6525 104.294H79.8437C79.9843 104.292 80.12 104.242 80.2291 104.154C80.3383 104.065 80.4147 103.942 80.4461 103.805L81.8527 97.5599C81.9286 97.2226 82.0877 96.9095 82.3155 96.6494C82.5433 96.3892 82.8326 96.1902 83.157 96.0704C85.395 95.2328 87.4763 94.0249 89.3139 92.4973C89.5801 92.2765 89.8975 92.1262 90.237 92.06C90.5764 91.9939 90.927 92.0141 91.2566 92.1187L97.339 94.0393C97.6264 94.1277 97.9359 94.0283 98.0713 93.7823L102.681 85.8126C102.748 85.6829 102.771 85.5347 102.747 85.3906C102.722 85.2464 102.652 85.1142 102.545 85.014L97.8806 80.7251C97.6306 80.4958 97.441 80.2084 97.3287 79.8883C97.2164 79.5683 97.1848 79.2254 97.2367 78.8902C97.4191 77.6743 97.5131 76.4584 97.5131 75.2784C97.5131 74.0984 97.4219 72.8853 97.2367 71.6666C97.1858 71.3314 97.2178 70.9888 97.3301 70.6689C97.4423 70.349 97.6314 70.0615 97.8806 69.8317L102.556 65.5318C102.662 65.4276 102.73 65.2913 102.75 65.1444C102.77 64.9974 102.741 64.8479 102.667 64.7193L98.0851 56.7966C97.9359 56.534 97.6374 56.4318 97.3334 56.5202L91.2594 58.438C90.9298 58.5427 90.5792 58.5629 90.2397 58.4968C89.9003 58.4306 89.5829 58.2802 89.3167 58.0594C87.4798 56.5309 85.3983 55.3229 83.1598 54.4863C82.8356 54.3661 82.5466 54.167 82.3188 53.9069C82.0911 53.6468 81.9318 53.334 81.8555 52.9968L80.4489 46.7515C80.4145 46.6144 80.3362 46.4924 80.2259 46.4041C80.1156 46.3157 79.9794 46.266 79.8382 46.2624H70.647C70.5064 46.265 70.3707 46.3145 70.2615 46.4032C70.1524 46.4918 70.076 46.6144 70.0446 46.7515L68.638 52.9996C68.5623 53.3367 68.4036 53.6495 68.1763 53.9096C67.949 54.1698 67.6603 54.369 67.3364 54.4891C65.0979 55.3257 63.0164 56.5337 61.1795 58.0622C60.9129 58.2823 60.5955 58.4323 60.2562 58.4984C59.9169 58.5645 59.5665 58.5447 59.2368 58.4408L53.1545 56.5202C52.8671 56.4318 52.5576 56.534 52.4222 56.7772L47.8127 64.7442C47.7446 64.8751 47.7215 65.0248 47.747 65.1701C47.7724 65.3155 47.8451 65.4484 47.9537 65.5483L52.6156 69.8317C52.8656 70.0609 53.0552 70.3484 53.1675 70.6684C53.2798 70.9885 53.3114 71.3314 53.2595 71.6666C53.0771 72.8825 52.9831 74.0984 52.9831 75.2784C52.9831 76.4584 53.0743 77.6715 53.2595 78.8902C53.3104 79.2254 53.2783 79.5679 53.1661 79.8879C53.0538 80.2078 52.8648 80.4952 52.6156 80.7251L47.9399 85.025C47.8343 85.1292 47.7662 85.2654 47.7462 85.4124C47.7262 85.5594 47.7554 85.7088 47.8293 85.8375L52.4111 93.7602C52.4837 93.8875 52.599 93.985 52.7365 94.0355C52.874 94.0861 53.025 94.0864 53.1628 94.0366L59.2368 92.1187C59.4386 92.0539 59.6493 92.0212 59.8613 92.022Z" fill="url(#paint2_linear_283_356)"/>
<path id="Vector_2" d="M73.1728 86.332C72.8609 86.3324 72.553 86.2625 72.2719 86.1273C71.9908 85.9922 71.7438 85.7954 71.5494 85.5516C71.3549 85.3077 71.218 85.0231 71.1489 84.719C71.0797 84.4149 71.0801 84.0991 71.1499 83.7952L75.2951 65.8329C75.4332 65.3134 75.7678 64.8679 76.2282 64.5905C76.6886 64.313 77.2387 64.2252 77.7626 64.3457C78.2864 64.4662 78.743 64.7855 79.0359 65.2362C79.3288 65.6869 79.4351 66.2337 79.3325 66.7614L75.1873 84.7237C75.0829 85.1801 74.8269 85.5876 74.461 85.8797C74.0951 86.1718 73.641 86.3313 73.1728 86.332ZM84.2237 83.5686C83.8035 83.5705 83.3926 83.4445 83.0457 83.2072C82.6988 82.97 82.4323 82.6328 82.2817 82.2404C82.1311 81.848 82.1036 81.4191 82.2027 81.0107C82.3018 80.6023 82.5228 80.2337 82.8365 79.954L88.0345 75.2783L82.8365 70.6025C82.634 70.4204 82.4694 70.2001 82.352 69.9543C82.2346 69.7085 82.1668 69.442 82.1525 69.17C82.1234 68.6206 82.3138 68.0823 82.6817 67.6733C82.8639 67.4708 83.0842 67.3062 83.33 67.1888C83.5758 67.0714 83.8423 67.0036 84.1143 66.9893C84.6637 66.9602 85.202 67.1506 85.611 67.5185L92.5196 73.7363C92.7348 73.9313 92.9069 74.1693 93.0246 74.4349C93.1424 74.7005 93.2032 74.9878 93.2032 75.2783C93.2032 75.5688 93.1424 75.8561 93.0246 76.1216C92.9069 76.3872 92.7348 76.6252 92.5196 76.8203L85.611 83.038C85.2301 83.3804 84.7359 83.5694 84.2237 83.5686ZM66.2614 83.5686C65.7493 83.5694 65.255 83.3804 64.8742 83.038L57.9656 76.8203C57.7503 76.6252 57.5783 76.3872 57.4606 76.1216C57.3428 75.8561 57.282 75.5688 57.282 75.2783C57.282 74.9878 57.3428 74.7005 57.4606 74.4349C57.5783 74.1693 57.7503 73.9313 57.9656 73.7363L64.8742 67.5185C65.2863 67.1721 65.8169 66.9993 66.3539 67.0367C66.891 67.0741 67.3925 67.3188 67.7526 67.719C68.1127 68.1193 68.3031 68.6438 68.2837 69.1818C68.2643 69.7198 68.0366 70.2293 67.6487 70.6025L62.4507 75.2783L67.6487 79.954C67.9609 80.2344 68.1806 80.6029 68.2788 81.0108C68.377 81.4187 68.3491 81.8469 68.1988 82.2386C68.0484 82.6303 67.7827 82.9672 67.4368 83.2047C67.0909 83.4422 66.681 83.569 66.2614 83.5686Z" fill="url(#paint3_linear_283_356)"/>
</g>
</g>
<defs>
<linearGradient id="paint0_linear_283_356" x1="75.0002" y1="-0.000976563" x2="75.0002" y2="149.999" gradientUnits="userSpaceOnUse">
<stop stop-color="#EC7D43"/>
<stop offset="1" stop-color="#EC7D43" stop-opacity="0"/>
</linearGradient>
<linearGradient id="paint1_linear_283_356" x1="0.000183105" y1="74.999" x2="150" y2="74.999" gradientUnits="userSpaceOnUse">
<stop stop-color="#F6D58C"/>
<stop offset="0.31" stop-color="#F3BD78"/>
<stop offset="0.97" stop-color="#EC8045"/>
<stop offset="1" stop-color="#EC7D43"/>
</linearGradient>
<linearGradient id="paint2_linear_283_356" x1="75.2436" y1="42.1172" x2="75.2436" y2="108.44" gradientUnits="userSpaceOnUse">
<stop stop-color="#FFB995"/>
<stop offset="1" stop-color="#F3BD78" stop-opacity="0"/>
</linearGradient>
<linearGradient id="paint3_linear_283_356" x1="75.2426" y1="64.293" x2="75.2426" y2="86.332" gradientUnits="userSpaceOnUse">
<stop stop-color="#FFB995"/>
<stop offset="1" stop-color="#F3BD78" stop-opacity="0"/>
</linearGradient>
</defs>
</svg>
