<svg width="150" height="150" viewBox="0 0 150 150" fill="none" xmlns="http://www.w3.org/2000/svg">
<g id="consultancy">
<g id="Group 1326">
<circle id="Ellipse 1920" cx="75.0002" cy="74.999" r="75" fill="url(#paint0_linear_283_450)" fill-opacity="0.68"/>
<path id="Subtract" fill-rule="evenodd" clip-rule="evenodd" d="M11.8228 40.2158H138.177V39.2158H11.8228V40.2158ZM12.9312 113.369H138.177V112.369H12.9312V113.369Z" fill="white" fill-opacity="0.22"/>
<circle id="Ellipse 1921" cx="75.0002" cy="74.999" r="73" stroke="url(#paint1_linear_283_450)" stroke-width="4"/>
</g>
<g id="Vector">
<path fill-rule="evenodd" clip-rule="evenodd" d="M75.9738 42.135C69.357 41.913 62.8372 43.7716 57.3322 47.4493C51.1425 51.5875 46.6095 57.7749 44.5297 64.9241C43.9665 64.8553 43.2921 64.8857 42.4913 65.1122C39.5015 65.9615 37.2539 68.4104 36.2428 70.568C34.9304 73.3799 34.3773 77.0997 34.9607 80.9378C35.54 84.7648 37.1568 87.9195 39.179 89.878C41.2072 91.8375 43.4974 92.4745 45.7723 91.9962C49.1595 91.2733 50.8389 90.7323 50.3647 87.5777L48.0696 72.2798C48.3026 68.1163 49.5006 64.0639 51.5687 60.4428C53.6369 56.8217 56.5186 53.731 59.9863 51.4148C64.6597 48.2884 70.1957 46.7059 75.8154 46.8902C81.4352 47.0745 86.8556 49.0162 91.3141 52.4421C94.3924 54.8022 96.9236 57.8002 98.7343 61.2305C100.545 64.6608 101.592 68.4422 101.804 72.3152L100.199 83.0156C98.4565 87.7912 95.3962 91.975 91.3726 95.0818C87.3491 98.1886 82.5271 100.091 77.4662 100.568H70.6251C70.2065 100.567 69.7918 100.649 69.4049 100.809C69.0179 100.968 68.6663 101.203 68.3702 101.499C68.0741 101.795 67.8393 102.146 67.6794 102.533C67.5194 102.92 67.4374 103.335 67.4381 103.753V105.434C67.4373 105.852 67.5192 106.267 67.6791 106.654C67.839 107.041 68.0737 107.393 68.3698 107.689C68.6659 107.985 69.0176 108.219 69.4046 108.379C69.7916 108.539 70.2064 108.621 70.6251 108.62H79.2508C79.669 108.62 80.0832 108.538 80.4696 108.378C80.856 108.219 81.2071 107.984 81.5026 107.688C81.798 107.392 82.0321 107.041 82.1914 106.654C82.3507 106.267 82.432 105.853 82.4306 105.435V104.555C90.1804 102.657 96.932 97.9122 101.342 91.2632L104.106 91.9962C106.354 92.5796 108.672 91.8364 110.699 89.878C112.721 87.9184 114.337 84.7648 114.917 80.9378C115.504 77.0987 114.933 73.386 113.637 70.568C112.336 67.7501 110.398 65.9605 108.16 65.3184C107.223 65.0485 106.206 64.9494 105.333 64.9241C103.455 58.4582 99.562 52.7606 94.221 48.6606C88.971 44.6302 82.5891 42.3479 75.9738 42.135Z" fill="url(#paint2_linear_283_450)"/>
<path fill-rule="evenodd" clip-rule="evenodd" d="M86.0706 69.656C87.1664 69.6574 88.2168 70.0933 88.9915 70.8682C89.7662 71.6431 90.2019 72.6937 90.203 73.7894C90.2011 74.8851 89.765 75.9353 88.9903 76.7101C88.2155 77.4848 87.1653 77.9209 86.0696 77.9228C84.9727 77.923 83.9206 77.4878 83.1444 76.7128C82.3683 75.9378 81.9315 74.8863 81.9302 73.7894C81.9304 73.2461 82.0377 72.7082 82.2459 72.2064C82.4541 71.7046 82.7591 71.2487 83.1435 70.8648C83.5279 70.4808 83.9841 70.1764 84.4862 69.9688C84.9883 69.7613 85.5263 69.6546 86.0696 69.655L86.0706 69.656ZM74.9384 69.656C75.7558 69.6564 76.5547 69.8992 77.2342 70.3536C77.9136 70.8079 78.4431 71.4536 78.7556 72.2088C79.0682 72.964 79.1498 73.795 78.9902 74.5966C78.8306 75.3983 78.4368 76.1346 77.8588 76.7125C77.2808 77.2904 76.5444 77.6839 75.7427 77.8434C74.941 78.0028 74.1101 77.921 73.3549 77.6082C72.5997 77.2955 71.9542 76.7659 71.5 76.0863C71.0458 75.4067 70.8033 74.6078 70.8031 73.7904C70.8025 73.2472 70.9091 72.7092 71.1168 72.2072C71.3244 71.7053 71.629 71.2492 72.0131 70.8651C72.3972 70.481 72.8533 70.1764 73.3553 69.9687C73.8572 69.7611 74.3952 69.6555 74.9384 69.656ZM63.8093 69.656C64.3598 69.6439 64.9072 69.7418 65.4193 69.944C65.9315 70.1463 66.398 70.4488 66.7917 70.8338C67.1853 71.2188 67.4981 71.6786 67.7116 72.1862C67.9251 72.6937 68.0351 73.2388 68.0351 73.7894C68.0351 74.34 67.9251 74.8851 67.7116 75.3927C67.4981 75.9002 67.1853 76.36 66.7917 76.745C66.398 77.13 65.9315 77.4325 65.4193 77.6348C64.9072 77.837 64.3598 77.9349 63.8093 77.9228C62.7241 77.9058 61.6892 77.4628 60.9278 76.6894C60.1663 75.916 59.7396 74.8742 59.7396 73.7889C59.7396 72.7036 60.1663 71.6618 60.9278 70.8884C61.6892 70.115 62.7241 69.673 63.8093 69.656ZM74.9384 51.8971C62.8154 51.8971 53.0462 61.3448 53.0462 73.7884C53.0462 79.765 55.306 85.0469 58.9874 88.9225L57.6811 94.7787C57.2503 96.7059 58.587 98.0021 60.32 97.0375L66.0378 93.8475C68.8471 95.0639 71.8771 95.6883 74.9384 95.6817C87.0655 95.6817 96.8287 86.24 96.8287 73.7914C96.8287 61.3469 87.0655 51.8992 74.9384 51.8992V51.8971Z" fill="url(#paint3_linear_283_450)"/>
</g>
</g>
<defs>
<linearGradient id="paint0_linear_283_450" x1="75.0002" y1="-0.000976563" x2="75.0002" y2="149.999" gradientUnits="userSpaceOnUse">
<stop stop-color="#EC7D43"/>
<stop offset="1" stop-color="#EC7D43" stop-opacity="0"/>
</linearGradient>
<linearGradient id="paint1_linear_283_450" x1="0.000183105" y1="74.999" x2="150" y2="74.999" gradientUnits="userSpaceOnUse">
<stop stop-color="#F6D58C"/>
<stop offset="0.31" stop-color="#F3BD78"/>
<stop offset="0.97" stop-color="#EC8045"/>
<stop offset="1" stop-color="#EC7D43"/>
</linearGradient>
<linearGradient id="paint2_linear_283_450" x1="74.9385" y1="42.1172" x2="74.9385" y2="108.62" gradientUnits="userSpaceOnUse">
<stop stop-color="#FFB995"/>
<stop offset="1" stop-color="#F3BD78" stop-opacity="0"/>
</linearGradient>
<linearGradient id="paint3_linear_283_450" x1="74.9385" y1="42.1172" x2="74.9385" y2="108.62" gradientUnits="userSpaceOnUse">
<stop stop-color="#FFB995"/>
<stop offset="1" stop-color="#F3BD78" stop-opacity="0"/>
</linearGradient>
</defs>
</svg>
