<svg width="150" height="150" viewBox="0 0 150 150" fill="none" xmlns="http://www.w3.org/2000/svg">
<g id="ops">
<g id="Group 1323">
<circle id="Ellipse 1920" cx="75.0002" cy="74.999" r="75" fill="url(#paint0_linear_283_376)" fill-opacity="0.68"/>
<path id="Subtract" fill-rule="evenodd" clip-rule="evenodd" d="M11.8229 40.2158H138.178V39.2158H11.8229V40.2158ZM12.9313 113.369H138.178V112.369H12.9313V113.369Z" fill="white" fill-opacity="0.22"/>
<circle id="Ellipse 1921" cx="75.0002" cy="74.999" r="73" stroke="url(#paint1_linear_283_376)" stroke-width="4"/>
</g>
<g id="Vector">
<path d="M112.92 82.8522C113.009 82.2385 113.054 81.6192 113.054 80.999C113.071 77.453 111.679 74.0454 109.186 71.5241C106.692 69.0028 103.3 67.5738 99.7539 67.5507C97.1828 67.5473 94.6664 68.2933 92.5126 69.6975C90.3588 71.1017 88.661 73.1032 87.6268 75.4572C86.7714 75.1749 85.8763 75.0317 84.9756 75.033C82.7183 75.046 80.55 75.9147 78.9082 77.4638C77.2664 79.0129 76.2733 81.1271 76.1293 83.3798C73.5785 84.429 71.4686 86.3274 70.157 88.7537C68.8453 91.18 68.4124 93.985 68.9316 96.6938C69.4508 99.4027 70.8902 101.849 73.006 103.618C75.1218 105.388 77.7841 106.371 80.5421 106.403H110.099C113.001 106.37 115.792 105.282 117.952 103.343C120.112 101.405 121.493 98.7467 121.838 95.8649C122.183 92.9831 121.469 90.0741 119.828 87.68C118.187 85.2859 115.732 83.5701 112.92 82.8522ZM66.946 88.669C67.3883 87.6234 67.9486 86.6318 68.616 85.7133H34.7293V88.669H66.946ZM34.7293 62.068H86.4534V65.0237H34.7293V62.068ZM67.0347 100.492H56.8967C56.5048 100.492 56.1289 100.336 55.8518 100.059C55.5746 99.7817 55.4189 99.4058 55.4189 99.0138C55.4189 98.6219 55.5746 98.246 55.8518 97.9688C56.1289 97.6917 56.5048 97.536 56.8967 97.536H66.0741C65.8655 96.5247 65.7615 95.4946 65.7637 94.4621C65.7605 93.5092 65.8546 92.5584 66.0445 91.6246H31.7736C30.5988 91.6282 29.4732 92.0964 28.6425 92.9271C27.8118 93.7577 27.3436 94.8834 27.3401 96.0581V101.969C27.3436 103.144 27.8118 104.27 28.6425 105.101C29.4732 105.931 30.5988 106.399 31.7736 106.403H71.7194C69.678 104.866 68.0651 102.83 67.0347 100.492ZM33.2514 100.492C32.9591 100.492 32.6734 100.405 32.4304 100.243C32.1874 100.08 31.9979 99.8494 31.8861 99.5794C31.7742 99.3093 31.745 99.0122 31.802 98.7255C31.859 98.4388 31.9998 98.1755 32.2064 97.9688C32.4131 97.7621 32.6764 97.6214 32.9631 97.5644C33.2498 97.5074 33.5469 97.5366 33.817 97.6485C34.087 97.7603 34.3178 97.9497 34.4802 98.1928C34.6426 98.4358 34.7293 98.7215 34.7293 99.0138C34.7293 99.4058 34.5736 99.7817 34.2964 100.059C34.0193 100.336 33.6434 100.492 33.2514 100.492ZM37.6849 100.492C37.3926 100.492 37.1069 100.405 36.8639 100.243C36.6208 100.08 36.4314 99.8494 36.3196 99.5794C36.2077 99.3093 36.1785 99.0122 36.2355 98.7255C36.2925 98.4388 36.4333 98.1755 36.6399 97.9688C36.8466 97.7621 37.1099 97.6214 37.3966 97.5644C37.6833 97.5074 37.9804 97.5366 38.2505 97.6485C38.5205 97.7603 38.7513 97.9497 38.9137 98.1928C39.0761 98.4358 39.1627 98.7215 39.1627 99.0138C39.1627 99.4058 39.007 99.7817 38.7299 100.059C38.4528 100.336 38.0769 100.492 37.6849 100.492ZM42.1184 100.492C41.8261 100.492 41.5404 100.405 41.2974 100.243C41.0543 100.08 40.8649 99.8494 40.7531 99.5794C40.6412 99.3093 40.612 99.0122 40.669 98.7255C40.726 98.4388 40.8667 98.1755 41.0734 97.9688C41.2801 97.7621 41.5434 97.6214 41.8301 97.5644C42.1168 97.5074 42.4139 97.5366 42.684 97.6485C42.954 97.7603 43.1848 97.9497 43.3472 98.1928C43.5096 98.4358 43.5962 98.7215 43.5962 99.0138C43.5962 99.4058 43.4405 99.7817 43.1634 100.059C42.8863 100.336 42.5104 100.492 42.1184 100.492Z" fill="url(#paint2_linear_283_376)"/>
<path d="M31.7736 82.7576H71.4091C72.0475 82.2524 72.7244 81.7978 73.4337 81.398C73.7966 79.7499 74.507 78.1981 75.5174 76.8463H56.8967C56.5048 76.8463 56.1289 76.6906 55.8518 76.4135C55.5746 76.1363 55.4189 75.7604 55.4189 75.3685C55.4189 74.9765 55.5746 74.6006 55.8518 74.3235C56.1289 74.0463 56.5048 73.8906 56.8967 73.8906H78.7243C80.5926 72.7022 82.7613 72.0716 84.9756 72.0729C85.345 72.0729 85.6997 72.1025 86.0692 72.132C87.0759 70.5535 88.3455 69.159 89.8228 68.0089C89.6864 67.9838 89.5477 67.9739 89.4091 67.9793H31.7736C30.5988 67.9828 29.4732 68.451 28.6425 69.2817C27.8118 70.1124 27.3436 71.238 27.3401 72.4128V78.3241C27.3436 79.4989 27.8118 80.6245 28.6425 81.4552C29.4732 82.2859 30.5988 82.7541 31.7736 82.7576ZM42.1184 73.8906C42.4107 73.8906 42.6964 73.9773 42.9395 74.1397C43.1825 74.3021 43.3719 74.5329 43.4838 74.8029C43.5956 75.073 43.6249 75.3701 43.5678 75.6568C43.5108 75.9435 43.3701 76.2068 43.1634 76.4135C42.9567 76.6201 42.6934 76.7609 42.4067 76.8179C42.1201 76.8749 41.8229 76.8457 41.5529 76.7338C41.2828 76.622 41.052 76.4325 40.8896 76.1895C40.7273 75.9465 40.6406 75.6608 40.6406 75.3685C40.6406 74.9765 40.7963 74.6006 41.0734 74.3235C41.3506 74.0463 41.7265 73.8906 42.1184 73.8906ZM37.6849 73.8906C37.9772 73.8906 38.2629 73.9773 38.506 74.1397C38.749 74.3021 38.9384 74.5329 39.0503 74.8029C39.1621 75.073 39.1914 75.3701 39.1344 75.6568C39.0773 75.9435 38.9366 76.2068 38.7299 76.4135C38.5232 76.6201 38.2599 76.7609 37.9732 76.8179C37.6866 76.8749 37.3894 76.8457 37.1194 76.7338C36.8493 76.622 36.6185 76.4325 36.4561 76.1895C36.2938 75.9465 36.2071 75.6608 36.2071 75.3685C36.2071 74.9765 36.3628 74.6006 36.6399 74.3235C36.9171 74.0463 37.293 73.8906 37.6849 73.8906ZM33.2514 73.8906C33.5437 73.8906 33.8294 73.9773 34.0725 74.1397C34.3155 74.3021 34.5049 74.5329 34.6168 74.8029C34.7286 75.073 34.7579 75.3701 34.7009 75.6568C34.6438 75.9435 34.5031 76.2068 34.2964 76.4135C34.0897 76.6201 33.8264 76.7609 33.5397 76.8179C33.2531 76.8749 32.9559 76.8457 32.6859 76.7338C32.4158 76.622 32.185 76.4325 32.0226 76.1895C31.8603 75.9465 31.7736 75.6608 31.7736 75.3685C31.7736 74.9765 31.9293 74.6006 32.2064 74.3235C32.4836 74.0463 32.8595 73.8906 33.2514 73.8906ZM31.7736 59.1123H89.4091C90.5838 59.1088 91.7095 58.6406 92.5401 57.8099C93.3708 56.9792 93.839 55.8536 93.8426 54.6788V48.7675C93.839 47.5927 93.3708 46.4671 92.5401 45.6364C91.7095 44.8057 90.5838 44.3375 89.4091 44.334H31.7736C30.5988 44.3375 29.4732 44.8057 28.6425 45.6364C27.8118 46.4671 27.3436 47.5927 27.3401 48.7675V54.6788C27.3436 55.8536 27.8118 56.9792 28.6425 57.8099C29.4732 58.6406 30.5988 59.1088 31.7736 59.1123ZM56.8967 50.2453H87.9312C88.3232 50.2453 88.6991 50.401 88.9762 50.6782C89.2534 50.9553 89.4091 51.3312 89.4091 51.7231C89.4091 52.1151 89.2534 52.491 88.9762 52.7681C88.6991 53.0453 88.3232 53.201 87.9312 53.201H56.8967C56.5048 53.201 56.1289 53.0453 55.8518 52.7681C55.5746 52.491 55.4189 52.1151 55.4189 51.7231C55.4189 51.3312 55.5746 50.9553 55.8518 50.6782C56.1289 50.401 56.5048 50.2453 56.8967 50.2453ZM42.1184 50.2453C42.4107 50.2453 42.6964 50.332 42.9395 50.4944C43.1825 50.6568 43.3719 50.8876 43.4838 51.1576C43.5956 51.4276 43.6249 51.7248 43.5678 52.0115C43.5108 52.2981 43.3701 52.5615 43.1634 52.7681C42.9567 52.9748 42.6934 53.1156 42.4067 53.1726C42.1201 53.2296 41.8229 53.2003 41.5529 53.0885C41.2828 52.9766 41.052 52.7872 40.8896 52.5442C40.7273 52.3012 40.6406 52.0154 40.6406 51.7231C40.6406 51.3312 40.7963 50.9553 41.0734 50.6782C41.3506 50.401 41.7265 50.2453 42.1184 50.2453ZM37.6849 50.2453C37.9772 50.2453 38.2629 50.332 38.506 50.4944C38.749 50.6568 38.9384 50.8876 39.0503 51.1576C39.1621 51.4276 39.1914 51.7248 39.1344 52.0115C39.0773 52.2981 38.9366 52.5615 38.7299 52.7681C38.5232 52.9748 38.2599 53.1156 37.9732 53.1726C37.6866 53.2296 37.3894 53.2003 37.1194 53.0885C36.8493 52.9766 36.6185 52.7872 36.4561 52.5442C36.2938 52.3012 36.2071 52.0154 36.2071 51.7231C36.2071 51.3312 36.3628 50.9553 36.6399 50.6782C36.9171 50.401 37.293 50.2453 37.6849 50.2453ZM33.2514 50.2453C33.5437 50.2453 33.8294 50.332 34.0725 50.4944C34.3155 50.6568 34.5049 50.8876 34.6168 51.1576C34.7286 51.4276 34.7579 51.7248 34.7009 52.0115C34.6438 52.2981 34.5031 52.5615 34.2964 52.7681C34.0897 52.9748 33.8264 53.1156 33.5397 53.1726C33.2531 53.2296 32.9559 53.2003 32.6859 53.0885C32.4158 52.9766 32.185 52.7872 32.0226 52.5442C31.8603 52.3012 31.7736 52.0154 31.7736 51.7231C31.7736 51.3312 31.9293 50.9553 32.2064 50.6782C32.4836 50.401 32.8595 50.2453 33.2514 50.2453Z" fill="url(#paint3_linear_283_376)"/>
</g>
</g>
<defs>
<linearGradient id="paint0_linear_283_376" x1="75.0002" y1="-0.000976563" x2="75.0002" y2="149.999" gradientUnits="userSpaceOnUse">
<stop stop-color="#EC7D43"/>
<stop offset="1" stop-color="#EC7D43" stop-opacity="0"/>
</linearGradient>
<linearGradient id="paint1_linear_283_376" x1="0.000183105" y1="74.999" x2="150" y2="74.999" gradientUnits="userSpaceOnUse">
<stop stop-color="#F6D58C"/>
<stop offset="0.31" stop-color="#F3BD78"/>
<stop offset="0.97" stop-color="#EC8045"/>
<stop offset="1" stop-color="#EC7D43"/>
</linearGradient>
<linearGradient id="paint2_linear_283_376" x1="74.6316" y1="44.334" x2="74.6316" y2="106.403" gradientUnits="userSpaceOnUse">
<stop stop-color="#FFB995"/>
<stop offset="1" stop-color="#F3BD78" stop-opacity="0"/>
</linearGradient>
<linearGradient id="paint3_linear_283_376" x1="74.6316" y1="44.334" x2="74.6316" y2="106.403" gradientUnits="userSpaceOnUse">
<stop stop-color="#FFB995"/>
<stop offset="1" stop-color="#F3BD78" stop-opacity="0"/>
</linearGradient>
</defs>
</svg>
