<svg width="150" height="150" viewBox="0 0 150 150" fill="none" xmlns="http://www.w3.org/2000/svg">
<g id="restore">
<g id="Group 1325">
<circle id="Ellipse 1920" cx="75.0002" cy="74.999" r="73" fill="url(#paint0_linear_283_413)" stroke="url(#paint1_linear_283_413)" stroke-width="4"/>
<path id="Subtract" fill-rule="evenodd" clip-rule="evenodd" d="M11.8228 40.2158H138.177V39.2158H11.8228V40.2158ZM12.9312 113.369H138.177V112.369H12.9312V113.369Z" fill="white" fill-opacity="0.22"/>
<circle id="Ellipse 1921" cx="75.0002" cy="74.999" r="73" stroke="url(#paint2_linear_283_413)" stroke-width="4"/>
</g>
<g id="Vector">
<path d="M82.2046 55.7873V54.5865C82.2046 51.934 80.0542 49.7836 77.4017 49.7836H65.3943C62.7417 49.7836 60.5913 51.934 60.5913 54.5865V55.7873H82.2046ZM82.2046 60.5902C82.2006 64.5674 78.9774 67.7907 75.0002 67.7947H72.5987V77.487C74.2335 75.0246 76.3553 72.9232 78.8335 71.3124C81.3117 69.7016 84.0935 68.6155 87.0076 68.1212V64.1925H87.0328C87.2958 64.1925 93.494 63.9944 95.3478 58.5778C96.7563 54.4629 99.3258 53.3558 99.4556 53.3018C100.074 53.0611 100.38 52.3648 100.139 51.7468C99.8981 51.1287 99.2018 50.8228 98.5838 51.0636C98.4325 51.1224 94.8747 52.5464 93.076 57.7997C91.7947 61.5436 87.3557 61.7777 87.0075 61.791V60.5902C87.0075 59.2639 85.9323 58.1888 84.606 58.1888H82.2045L82.2046 60.5902ZM76.2009 46.1814C76.2009 43.5288 74.0505 41.3784 71.398 41.3784C68.7454 41.3784 66.595 43.5288 66.595 46.1814V47.3821H76.2009V46.1814Z" fill="url(#paint3_linear_283_413)"/>
<path d="M79.8032 60.5902V58.1888H62.9929V60.5902C62.9929 63.2428 65.1433 65.3932 67.7958 65.3932H75.0003C77.6528 65.3932 79.8032 63.2429 79.8032 60.5902Z" fill="url(#paint4_linear_283_413)"/>
<path d="M60.5913 60.5903V58.1888H58.1899C56.8635 58.1888 55.7884 59.2639 55.7884 60.5903V61.791C55.5098 61.7802 51.001 61.5509 49.7199 57.801C47.9188 52.5477 44.3633 51.1237 44.2121 51.0648C43.594 50.8235 42.8973 51.1288 42.6559 51.7469C42.4146 52.365 42.7199 53.0617 43.338 53.303C43.4472 53.3475 46.0325 54.4462 47.4481 58.5791C49.3045 63.9944 55.5003 64.1926 55.7632 64.1926H55.7884V70.1963H42.5803C41.9171 70.1962 41.3795 70.7338 41.3795 71.3969C41.3795 72.06 41.9171 72.5976 42.5803 72.5976H55.7884V77.4006H55.7632C55.5002 77.4066 49.302 77.5987 47.4481 83.0152C46.0397 87.1266 43.4701 88.2373 43.3404 88.2913C42.7223 88.532 42.4164 89.2282 42.6572 89.8463C42.8979 90.4644 43.5941 90.7703 44.2122 90.5295C44.3634 90.4707 47.9212 89.0466 49.72 83.7934C51.0252 79.9774 55.6228 79.8021 55.8138 79.8021C55.8243 79.8004 55.8348 79.798 55.8451 79.7949C56.444 87.1977 62.1536 93.1655 69.5226 94.0908C68.6385 90.1977 68.8724 86.1339 70.1975 82.368V67.7947H67.796C63.8186 67.7908 60.5954 64.5676 60.5913 60.5903ZM90.6098 70.1962C79.9994 70.1962 71.398 78.7976 71.398 89.408C71.398 100.018 79.9994 108.62 90.6098 108.62C101.22 108.62 109.822 100.018 109.822 89.408C109.809 78.8029 101.215 70.2088 90.6098 70.1962ZM102.354 101.145L102.347 101.153C100.38 103.091 97.2209 103.091 95.2542 101.153L88.1962 94.0837C86.7913 94.3428 85.3444 94.2568 83.98 93.8331C82.6157 93.4093 81.3747 92.6605 80.3638 91.651L77.6681 88.9565C75.7375 87.003 75.7252 83.8637 77.6405 81.895C77.8721 81.6587 78.1484 81.4708 78.4532 81.3424C78.7581 81.214 79.0856 81.1475 79.4164 81.147H79.426C79.7502 81.1458 80.0714 81.2089 80.371 81.3325C80.6707 81.4562 80.9429 81.638 81.1719 81.8674L83.7523 84.4478C83.9971 84.712 84.3308 84.8764 84.6894 84.9094C85.048 84.9425 85.4062 84.8418 85.6951 84.6268C85.8324 84.5047 85.9436 84.3561 86.0219 84.1899C86.1002 84.0237 86.144 83.8433 86.1506 83.6597C86.1572 83.4761 86.1265 83.2931 86.0604 83.1217C85.9943 82.9502 85.8942 82.794 85.766 82.6624L83.0715 79.9703C82.8407 79.7403 82.6581 79.4666 82.5344 79.1651C82.4107 78.8637 82.3484 78.5406 82.3511 78.2148C82.3516 77.8838 82.4182 77.5563 82.5468 77.2514C82.6755 76.9465 82.8637 76.6703 83.1004 76.4389C85.0674 74.5258 88.2031 74.5364 90.1571 76.463L92.6294 78.9474C93.6614 79.9754 94.4372 81.2317 94.8944 82.6147C95.3516 83.9977 95.4774 85.4689 95.2615 86.9094L102.353 94.0491C104.295 96.0158 104.295 99.1778 102.354 101.145Z" fill="url(#paint5_linear_283_413)"/>
<path d="M93.548 88.6408C93.2792 88.3678 93.0794 88.0347 92.9652 87.669C92.851 87.3033 92.8256 86.9157 92.8913 86.5383C93.0495 85.4707 92.9546 84.381 92.6142 83.3569C92.2738 82.3328 91.6975 81.403 90.9316 80.6427L88.463 78.162C87.4444 77.16 85.812 77.1552 84.7875 78.1512L84.7742 78.2713L87.4638 80.9669C87.8111 81.3133 88.0861 81.7252 88.2731 82.1786C88.46 82.632 88.5551 83.118 88.5529 83.6085C88.5544 84.1447 88.4409 84.675 88.2201 85.1636C87.9993 85.6522 87.6764 86.0878 87.273 86.4411C85.7251 87.724 83.4498 87.5968 82.0545 86.1493L79.4741 83.5689L79.354 83.5821C78.3558 84.6089 78.3632 86.2458 79.3708 87.2635L82.0629 89.9543C82.7949 90.6841 83.6918 91.2269 84.6779 91.5368C85.6639 91.8468 86.7101 91.9147 87.728 91.735C87.8781 91.7074 88.0305 91.6933 88.1831 91.693C88.4996 91.6903 88.8135 91.7503 89.1067 91.8694C89.4 91.9885 89.6667 92.1644 89.8918 92.3869L96.9437 99.4521C97.9679 100.474 99.6264 100.472 100.648 99.4473C101.669 98.4231 101.667 96.7646 100.643 95.7431L93.548 88.6408Z" fill="url(#paint6_linear_283_413)"/>
</g>
</g>
<defs>
<linearGradient id="paint0_linear_283_413" x1="75.0002" y1="-0.000976563" x2="75.0002" y2="149.999" gradientUnits="userSpaceOnUse">
<stop stop-color="#F43F5E"/>
<stop offset="1" stop-color="#F3BD78" stop-opacity="0"/>
</linearGradient>
<linearGradient id="paint1_linear_283_413" x1="0.000183105" y1="74.999" x2="150" y2="74.999" gradientUnits="userSpaceOnUse">
<stop stop-color="#F6D58C"/>
<stop offset="0.31" stop-color="#FFB58B"/>
<stop offset="0.97" stop-color="#FF4141"/>
<stop offset="1" stop-color="#FF5353"/>
</linearGradient>
<linearGradient id="paint2_linear_283_413" x1="0.000183105" y1="74.999" x2="150" y2="74.999" gradientUnits="userSpaceOnUse">
<stop stop-color="#F6D58C"/>
<stop offset="0.31" stop-color="#FFB58B"/>
<stop offset="0.97" stop-color="#FF4141"/>
<stop offset="1" stop-color="#FF5353"/>
</linearGradient>
<linearGradient id="paint3_linear_283_413" x1="75.6006" y1="41.3784" x2="75.6006" y2="108.62" gradientUnits="userSpaceOnUse">
<stop stop-color="#FFB995"/>
<stop offset="1" stop-color="#F3BD78" stop-opacity="0"/>
</linearGradient>
<linearGradient id="paint4_linear_283_413" x1="75.6006" y1="41.3784" x2="75.6006" y2="108.62" gradientUnits="userSpaceOnUse">
<stop stop-color="#FFB995"/>
<stop offset="1" stop-color="#F3BD78" stop-opacity="0"/>
</linearGradient>
<linearGradient id="paint5_linear_283_413" x1="75.6006" y1="41.3784" x2="75.6006" y2="108.62" gradientUnits="userSpaceOnUse">
<stop stop-color="#FFB995"/>
<stop offset="1" stop-color="#F3BD78" stop-opacity="0"/>
</linearGradient>
<linearGradient id="paint6_linear_283_413" x1="75.6006" y1="41.3784" x2="75.6006" y2="108.62" gradientUnits="userSpaceOnUse">
<stop stop-color="#FFB995"/>
<stop offset="1" stop-color="#F3BD78" stop-opacity="0"/>
</linearGradient>
</defs>
</svg>
