<svg width="109" height="19" viewBox="0 0 109 19" fill="none" xmlns="http://www.w3.org/2000/svg">
<path d="M8.59933 3.8501C8.92836 3.18353 9.87888 3.18352 10.2079 3.85009L11.5047 6.47732C11.6353 6.74177 11.8875 6.92516 12.1793 6.96781L15.0808 7.39191C15.8162 7.4994 16.1093 8.40336 15.5769 8.92193L13.4788 10.9655C13.2672 11.1715 13.1707 11.4685 13.2206 11.7596L13.7155 14.6455C13.8412 15.3783 13.0721 15.9371 12.414 15.591L9.82109 14.2274C9.55974 14.09 9.24749 14.09 8.98614 14.2274L6.39319 15.591C5.73517 15.9371 4.96601 15.3783 5.09169 14.6455L5.58666 11.7596C5.63658 11.4685 5.54002 11.1715 5.32845 10.9655L3.23036 8.92193C2.69795 8.40337 2.99105 7.4994 3.72645 7.39191L6.62795 6.96781C6.91977 6.92516 7.17197 6.74177 7.30251 6.47732L8.59933 3.8501Z" fill="#FFB800"/>
<path d="M31.0229 3.8501C31.3519 3.18353 32.3025 3.18352 32.6315 3.85009L33.9283 6.47732C34.0588 6.74177 34.3111 6.92516 34.6029 6.96781L37.5044 7.39191C38.2398 7.4994 38.5329 8.40336 38.0005 8.92193L35.9024 10.9655C35.6908 11.1715 35.5942 11.4685 35.6442 11.7596L36.1391 14.6455C36.2648 15.3783 35.4956 15.9371 34.8376 15.591L32.2447 14.2274C31.9833 14.09 31.6711 14.09 31.4097 14.2274L28.8168 15.591C28.1588 15.9371 27.3896 15.3783 27.5153 14.6455L28.0102 11.7596C28.0602 11.4685 27.9636 11.1715 27.752 10.9655L25.6539 8.92193C25.1215 8.40337 25.4146 7.4994 26.15 7.39191L29.0515 6.96781C29.3434 6.92516 29.5956 6.74177 29.7261 6.47732L31.0229 3.8501Z" fill="#FFB800"/>
<path d="M53.446 3.8501C53.775 3.18353 54.7256 3.18352 55.0546 3.85009L56.3514 6.47732C56.4819 6.74177 56.7341 6.92516 57.026 6.96781L59.9275 7.39191C60.6629 7.4994 60.956 8.40336 60.4236 8.92193L58.3255 10.9655C58.1139 11.1715 58.0173 11.4685 58.0673 11.7596L58.5622 14.6455C58.6879 15.3783 57.9187 15.9371 57.2607 15.591L54.6678 14.2274C54.4064 14.09 54.0942 14.09 53.8328 14.2274L51.2399 15.591C50.5819 15.9371 49.8127 15.3783 49.9384 14.6455L50.4333 11.7596C50.4833 11.4685 50.3867 11.1715 50.1751 10.9655L48.077 8.92193C47.5446 8.40337 47.8377 7.4994 48.5731 7.39191L51.4746 6.96781C51.7664 6.92516 52.0187 6.74177 52.1492 6.47732L53.446 3.8501Z" fill="#FFB800"/>
<path d="M75.8691 3.8501C76.1981 3.18353 77.1487 3.18352 77.4777 3.85009L78.7745 6.47732C78.905 6.74177 79.1572 6.92516 79.4491 6.96781L82.3506 7.39191C83.086 7.4994 83.3791 8.40336 82.8467 8.92193L80.7486 10.9655C80.537 11.1715 80.4404 11.4685 80.4904 11.7596L80.9853 14.6455C81.111 15.3783 80.3418 15.9371 79.6838 15.591L77.0909 14.2274C76.8295 14.09 76.5173 14.09 76.2559 14.2274L73.663 15.591C73.0049 15.9371 72.2358 15.3783 72.3615 14.6455L72.8564 11.7596C72.9064 11.4685 72.8098 11.1715 72.5982 10.9655L70.5001 8.92193C69.9677 8.40337 70.2608 7.4994 70.9962 7.39191L73.8977 6.96781C74.1895 6.92516 74.4417 6.74177 74.5723 6.47732L75.8691 3.8501Z" stroke="#FFB800" stroke-width="0.89693" stroke-linecap="round" stroke-linejoin="round"/>
<path d="M98.2924 3.8501C98.6215 3.18353 99.572 3.18352 99.901 3.85009L101.198 6.47732C101.328 6.74177 101.581 6.92516 101.872 6.96781L104.774 7.39191C105.509 7.4994 105.802 8.40336 105.27 8.92193L103.172 10.9655C102.96 11.1715 102.864 11.4685 102.914 11.7596L103.409 14.6455C103.534 15.3783 102.765 15.9371 102.107 15.591L99.5142 14.2274C99.2529 14.09 98.9406 14.09 98.6793 14.2274L96.0863 15.591C95.4283 15.9371 94.6591 15.3783 94.7848 14.6455L95.2798 11.7596C95.3297 11.4685 95.2331 11.1715 95.0216 10.9655L92.9235 8.92193C92.3911 8.40337 92.6842 7.4994 93.4196 7.39191L96.3211 6.96781C96.6129 6.92516 96.8651 6.74177 96.9956 6.47732L98.2924 3.8501Z" stroke="#FFB800" stroke-width="0.89693" stroke-linecap="round" stroke-linejoin="round"/>
</svg>
