<svg width="108" height="19" viewBox="0 0 108 19" fill="none" xmlns="http://www.w3.org/2000/svg">
<path d="M8.40182 3.8501C8.73085 3.18353 9.68137 3.18352 10.0104 3.85009L11.3072 6.47732C11.4378 6.74177 11.69 6.92516 11.9818 6.96781L14.8833 7.39191C15.6187 7.4994 15.9118 8.40336 15.3794 8.92193L13.2813 10.9655C13.0697 11.1715 12.9731 11.4685 13.0231 11.7596L13.518 14.6455C13.6437 15.3783 12.8745 15.9371 12.2165 15.591L9.62358 14.2274C9.36223 14.09 9.04998 14.09 8.78863 14.2274L6.19568 15.591C5.53766 15.9371 4.7685 15.3783 4.89418 14.6455L5.38915 11.7596C5.43907 11.4685 5.34251 11.1715 5.13095 10.9655L3.03285 8.92193C2.50044 8.40337 2.79354 7.4994 3.52894 7.39191L6.43044 6.96781C6.72226 6.92516 6.97446 6.74177 7.105 6.47732L8.40182 3.8501Z" fill="#FFB800"/>
<path d="M30.8252 3.8501C31.1542 3.18353 32.1047 3.18352 32.4337 3.85009L33.7306 6.47732C33.8611 6.74177 34.1133 6.92516 34.4051 6.96781L37.3066 7.39191C38.042 7.4994 38.3351 8.40336 37.8027 8.92193L35.7046 10.9655C35.493 11.1715 35.3965 11.4685 35.4464 11.7596L35.9414 14.6455C36.0671 15.3783 35.2979 15.9371 34.6399 15.591L32.0469 14.2274C31.7856 14.09 31.4733 14.09 31.212 14.2274L28.619 15.591C27.961 15.9371 27.1918 15.3783 27.3175 14.6455L27.8125 11.7596C27.8624 11.4685 27.7658 11.1715 27.5543 10.9655L25.4562 8.92193C24.9238 8.40337 25.2169 7.4994 25.9523 7.39191L28.8538 6.96781C29.1456 6.92516 29.3978 6.74177 29.5283 6.47732L30.8252 3.8501Z" stroke="#FFB800" stroke-width="0.89693" stroke-linecap="round" stroke-linejoin="round"/>
<path d="M53.2483 3.8501C53.5773 3.18353 54.5278 3.18352 54.8568 3.85009L56.1537 6.47732C56.2842 6.74177 56.5364 6.92516 56.8282 6.96781L59.7297 7.39191C60.4651 7.4994 60.7582 8.40336 60.2258 8.92193L58.1277 10.9655C57.9161 11.1715 57.8196 11.4685 57.8695 11.7596L58.3645 14.6455C58.4901 15.3783 57.721 15.9371 57.063 15.591L54.47 14.2274C54.2087 14.09 53.8964 14.09 53.6351 14.2274L51.0421 15.591C50.3841 15.9371 49.6149 15.3783 49.7406 14.6455L50.2356 11.7596C50.2855 11.4685 50.1889 11.1715 49.9774 10.9655L47.8793 8.92193C47.3469 8.40337 47.64 7.4994 48.3754 7.39191L51.2769 6.96781C51.5687 6.92516 51.8209 6.74177 51.9514 6.47732L53.2483 3.8501Z" stroke="#FFB800" stroke-width="0.89693" stroke-linecap="round" stroke-linejoin="round"/>
<path d="M75.6716 3.8501C76.0006 3.18353 76.9511 3.18352 77.2802 3.85009L78.577 6.47732C78.7075 6.74177 78.9597 6.92516 79.2516 6.96781L82.153 7.39191C82.8885 7.4994 83.1816 8.40336 82.6491 8.92193L80.551 10.9655C80.3395 11.1715 80.2429 11.4685 80.2928 11.7596L80.7878 14.6455C80.9135 15.3783 80.1443 15.9371 79.4863 15.591L76.8934 14.2274C76.632 14.09 76.3198 14.09 76.0584 14.2274L73.4655 15.591C72.8074 15.9371 72.0383 15.3783 72.164 14.6455L72.6589 11.7596C72.7088 11.4685 72.6123 11.1715 72.4007 10.9655L70.3026 8.92193C69.7702 8.40337 70.0633 7.4994 70.7987 7.39191L73.7002 6.96781C73.992 6.92516 74.2442 6.74177 74.3748 6.47732L75.6716 3.8501Z" stroke="#FFB800" stroke-width="0.89693" stroke-linecap="round" stroke-linejoin="round"/>
<path d="M98.0947 3.8501C98.4237 3.18353 99.3742 3.18352 99.7033 3.85009L101 6.47732C101.131 6.74177 101.383 6.92516 101.675 6.96781L104.576 7.39191C105.312 7.4994 105.605 8.40336 105.072 8.92193L102.974 10.9655C102.763 11.1715 102.666 11.4685 102.716 11.7596L103.211 14.6455C103.337 15.3783 102.567 15.9371 101.909 15.591L99.3165 14.2274C99.0551 14.09 98.7429 14.09 98.4815 14.2274L95.8886 15.591C95.2305 15.9371 94.4614 15.3783 94.5871 14.6455L95.082 11.7596C95.1319 11.4685 95.0354 11.1715 94.8238 10.9655L92.7257 8.92193C92.1933 8.40337 92.4864 7.4994 93.2218 7.39191L96.1233 6.96781C96.4151 6.92516 96.6673 6.74177 96.7979 6.47732L98.0947 3.8501Z" stroke="#FFB800" stroke-width="0.89693" stroke-linecap="round" stroke-linejoin="round"/>
</svg>
