<svg width="109" height="19" viewBox="0 0 109 19" fill="none" xmlns="http://www.w3.org/2000/svg">
<path d="M8.7966 3.8501C9.12562 3.18353 10.0761 3.18352 10.4052 3.85009L11.702 6.47732C11.8325 6.74177 12.0847 6.92516 12.3766 6.96781L15.278 7.39191C16.0135 7.4994 16.3066 8.40336 15.7741 8.92193L13.676 10.9655C13.4645 11.1715 13.3679 11.4685 13.4178 11.7596L13.9128 14.6455C14.0385 15.3783 13.2693 15.9371 12.6113 15.591L10.0184 14.2274C9.75701 14.09 9.44476 14.09 9.18341 14.2274L6.59045 15.591C5.93244 15.9371 5.16328 15.3783 5.28896 14.6455L5.78393 11.7596C5.83385 11.4685 5.73728 11.1715 5.52572 10.9655L3.42762 8.92193C2.89521 8.40337 3.18831 7.4994 3.92372 7.39191L6.82521 6.96781C7.11703 6.92516 7.36924 6.74177 7.49978 6.47732L8.7966 3.8501Z" fill="#FFB800"/>
<path d="M31.2201 3.8501C31.5491 3.18353 32.4996 3.18352 32.8286 3.85009L34.1255 6.47732C34.256 6.74177 34.5082 6.92516 34.8 6.96781L37.7015 7.39191C38.4369 7.4994 38.73 8.40336 38.1976 8.92193L36.0995 10.9655C35.8879 11.1715 35.7914 11.4685 35.8413 11.7596L36.3363 14.6455C36.4619 15.3783 35.6928 15.9371 35.0348 15.591L32.4418 14.2274C32.1805 14.09 31.8682 14.09 31.6069 14.2274L29.0139 15.591C28.3559 15.9371 27.5867 15.3783 27.7124 14.6455L28.2074 11.7596C28.2573 11.4685 28.1607 11.1715 27.9492 10.9655L25.8511 8.92193C25.3187 8.40337 25.6118 7.4994 26.3472 7.39191L29.2487 6.96781C29.5405 6.92516 29.7927 6.74177 29.9232 6.47732L31.2201 3.8501Z" fill="#FFB800"/>
<path d="M53.6432 3.8501C53.9722 3.18353 54.9227 3.18352 55.2517 3.85009L56.5485 6.47732C56.6791 6.74177 56.9313 6.92516 57.2231 6.96781L60.1246 7.39191C60.86 7.4994 61.1531 8.40336 60.6207 8.92193L58.5226 10.9655C58.311 11.1715 58.2145 11.4685 58.2644 11.7596L58.7594 14.6455C58.885 15.3783 58.1159 15.9371 57.4579 15.591L54.8649 14.2274C54.6036 14.09 54.2913 14.09 54.03 14.2274L51.437 15.591C50.779 15.9371 50.0098 15.3783 50.1355 14.6455L50.6305 11.7596C50.6804 11.4685 50.5838 11.1715 50.3723 10.9655L48.2742 8.92193C47.7418 8.40337 48.0349 7.4994 48.7703 7.39191L51.6718 6.96781C51.9636 6.92516 52.2158 6.74177 52.3463 6.47732L53.6432 3.8501Z" fill="#FFB800"/>
<path d="M76.0663 3.8501C76.3953 3.18353 77.3458 3.18352 77.6748 3.85009L78.9716 6.47732C79.1022 6.74177 79.3544 6.92516 79.6462 6.96781L82.5477 7.39191C83.2831 7.4994 83.5762 8.40336 83.0438 8.92193L80.9457 10.9655C80.7341 11.1715 80.6376 11.4685 80.6875 11.7596L81.1825 14.6455C81.3081 15.3783 80.539 15.9371 79.881 15.591L77.288 14.2274C77.0267 14.09 76.7144 14.09 76.4531 14.2274L73.8601 15.591C73.2021 15.9371 72.4329 15.3783 72.5586 14.6455L73.0536 11.7596C73.1035 11.4685 73.0069 11.1715 72.7954 10.9655L70.6973 8.92193C70.1649 8.40337 70.458 7.4994 71.1934 7.39191L74.0949 6.96781C74.3867 6.92516 74.6389 6.74177 74.7694 6.47732L76.0663 3.8501Z" fill="#FFB800"/>
<path d="M98.4895 3.8501C98.8185 3.18353 99.769 3.18352 100.098 3.85009L101.395 6.47732C101.525 6.74177 101.778 6.92516 102.069 6.96781L104.971 7.39191C105.706 7.4994 105.999 8.40336 105.467 8.92193L103.369 10.9655C103.157 11.1715 103.061 11.4685 103.111 11.7596L103.606 14.6455C103.731 15.3783 102.962 15.9371 102.304 15.591L99.7112 14.2274C99.4499 14.09 99.1376 14.09 98.8763 14.2274L96.2833 15.591C95.6253 15.9371 94.8562 15.3783 94.9818 14.6455L95.4768 11.7596C95.5267 11.4685 95.4302 11.1715 95.2186 10.9655L93.1205 8.92193C92.5881 8.40337 92.8812 7.4994 93.6166 7.39191L96.5181 6.96781C96.8099 6.92516 97.0621 6.74177 97.1926 6.47732L98.4895 3.8501Z" fill="#FFB800"/>
</svg>
