<svg width="150" height="150" viewBox="0 0 150 150" fill="none" xmlns="http://www.w3.org/2000/svg">
<g id="taas">
<g id="Group 1324">
<circle id="Ellipse 1920" cx="75.0002" cy="74.999" r="75" fill="url(#paint0_linear_283_432)" fill-opacity="0.68"/>
<path id="Subtract" fill-rule="evenodd" clip-rule="evenodd" d="M11.8228 40.2158H138.178V39.2158H11.8228V40.2158ZM12.9312 113.369H138.178V112.369H12.9312V113.369Z" fill="white" fill-opacity="0.22"/>
<circle id="Ellipse 1921" cx="75.0002" cy="74.999" r="73" stroke="url(#paint1_linear_283_432)" stroke-width="4"/>
</g>
<path id="Vector" d="M82.9904 62.821C84.0001 62.8213 84.9747 63.1923 85.7289 63.8638C86.4831 64.5352 86.9645 65.4603 87.0817 66.4632L87.1105 66.9412V67.2749C83.7151 67.9189 80.5118 69.3307 77.7456 71.4024C74.9794 73.4741 72.7235 76.1508 71.1503 79.228C69.5772 82.3051 68.7284 85.7012 68.6689 89.1567C68.6094 92.6122 69.3407 96.0355 70.807 99.165C67.5023 98.7125 64.4583 97.1236 62.1975 94.6711C59.9367 92.2186 58.6003 89.0555 58.4177 85.725L58.3971 84.9381V66.9412C58.3972 65.932 58.7677 64.958 59.4383 64.2039C60.1089 63.4497 61.033 62.9679 62.0352 62.8499L62.5173 62.821H82.9904ZM91.3337 66.8835C96.7929 66.8835 101.803 68.8159 105.713 72.0337V66.9412L105.688 66.4632C105.571 65.4603 105.09 64.5352 104.336 63.8638C103.581 63.1923 102.607 62.8213 101.597 62.821H90.1265C90.728 63.8634 91.1153 65.0583 91.206 66.3273L91.2266 66.8835H91.3337ZM55.3811 62.821C54.7818 63.8555 54.4161 65.0087 54.3099 66.1995L54.2769 66.9412V84.9381L54.2975 85.8033C54.4211 88.4526 55.101 90.9535 56.2216 93.199C54.4867 93.9276 52.6023 94.2296 50.7266 94.0795C48.8509 93.9294 47.0385 93.3317 45.4415 92.3364C43.8445 91.3412 42.5095 89.9774 41.5484 88.3596C40.5874 86.7418 40.0283 84.9172 39.9182 83.0387L39.9017 82.3465V66.9412C39.9018 65.932 40.2723 64.958 40.9429 64.2039C41.6135 63.4497 42.5375 62.9679 43.5398 62.8499L44.0218 62.821H55.3811ZM72.7435 42.1172C75.1776 42.1172 77.5119 43.0841 79.2331 44.8053C80.9542 46.5264 81.9212 48.8608 81.9212 51.2949C81.9212 53.7289 80.9542 56.0633 79.2331 57.7844C77.5119 59.5056 75.1776 60.4725 72.7435 60.4725C70.3094 60.4725 67.9751 59.5056 66.2539 57.7844C64.5328 56.0633 63.5658 53.7289 63.5658 51.2949C63.5658 48.8608 64.5328 46.5264 66.2539 44.8053C67.9751 43.0841 70.3094 42.1172 72.7435 42.1172ZM93.2949 44.7047C95.3858 44.7047 97.3911 45.5353 98.8697 47.0138C100.348 48.4923 101.179 50.4976 101.179 52.5886C101.179 54.6795 100.348 56.6848 98.8697 58.1634C97.3911 59.6419 95.3858 60.4725 93.2949 60.4725C91.2039 60.4725 89.1986 59.6419 87.7201 58.1634C86.2416 56.6848 85.4109 54.6795 85.4109 52.5886C85.4109 50.4976 86.2416 48.4923 87.7201 47.0138C89.1986 45.5353 91.2039 44.7047 93.2949 44.7047ZM52.258 44.7047C54.349 44.7047 56.3543 45.5353 57.8328 47.0138C59.3114 48.4923 60.142 50.4976 60.142 52.5886C60.142 54.6795 59.3114 56.6848 57.8328 58.1634C56.3543 59.6419 54.349 60.4725 52.258 60.4725C50.1671 60.4725 48.1618 59.6419 46.6833 58.1634C45.2047 56.6848 44.3741 54.6795 44.3741 52.5886C44.3741 50.4976 45.2047 48.4923 46.6833 47.0138C48.1618 45.5353 50.1671 44.7047 52.258 44.7047ZM109.874 89.5444C109.874 94.4617 107.921 99.1776 104.444 102.655C100.967 106.132 96.251 108.085 91.3337 108.085C86.4164 108.085 81.7005 106.132 78.2234 102.655C74.7463 99.1776 72.7929 94.4617 72.7929 89.5444C72.7929 84.6271 74.7463 79.9112 78.2234 76.4341C81.7005 72.9571 86.4164 71.0037 91.3337 71.0037C96.251 71.0037 100.967 72.9571 104.444 76.4341C107.921 79.9112 109.874 84.6271 109.874 89.5444ZM93.3938 81.3041C93.3938 80.7577 93.1767 80.2337 92.7904 79.8474C92.404 79.461 91.88 79.244 91.3337 79.244C90.7873 79.244 90.2633 79.461 89.877 79.8474C89.4906 80.2337 89.2736 80.7577 89.2736 81.3041V87.4843H83.0934C82.547 87.4843 82.023 87.7014 81.6367 88.0877C81.2503 88.474 81.0333 88.998 81.0333 89.5444C81.0333 90.0908 81.2503 90.6148 81.6367 91.0011C82.023 91.3874 82.547 91.6045 83.0934 91.6045H89.2736V97.7847C89.2736 98.3311 89.4906 98.8551 89.877 99.2414C90.2633 99.6278 90.7873 99.8448 91.3337 99.8448C91.88 99.8448 92.404 99.6278 92.7904 99.2414C93.1767 98.8551 93.3938 98.3311 93.3938 97.7847V91.6045H99.574C100.12 91.6045 100.644 91.3874 101.031 91.0011C101.417 90.6148 101.634 90.0908 101.634 89.5444C101.634 88.998 101.417 88.474 101.031 88.0877C100.644 87.7014 100.12 87.4843 99.574 87.4843H93.3938V81.3041Z" fill="url(#paint2_linear_283_432)"/>
</g>
<defs>
<linearGradient id="paint0_linear_283_432" x1="75.0002" y1="-0.000976563" x2="75.0002" y2="149.999" gradientUnits="userSpaceOnUse">
<stop stop-color="#EC7D43"/>
<stop offset="1" stop-color="#EC7D43" stop-opacity="0"/>
</linearGradient>
<linearGradient id="paint1_linear_283_432" x1="0.000183105" y1="74.999" x2="150" y2="74.999" gradientUnits="userSpaceOnUse">
<stop stop-color="#43AFEC"/>
<stop offset="0.31" stop-color="#F3BD78"/>
<stop offset="0.97" stop-color="#43AFEC"/>
<stop offset="1" stop-color="#43AFEC"/>
</linearGradient>
<linearGradient id="paint2_linear_283_432" x1="74.888" y1="42.1172" x2="74.888" y2="108.085" gradientUnits="userSpaceOnUse">
<stop stop-color="#FFB995"/>
<stop offset="1" stop-color="#F3BD78" stop-opacity="0"/>
</linearGradient>
</defs>
</svg>
