<svg width="150" height="150" viewBox="0 0 150 150" fill="none" xmlns="http://www.w3.org/2000/svg">
<g id="ux">
<g id="Group 1322">
<circle id="Ellipse 1920" opacity="0.68" cx="75.0002" cy="74.999" r="73" fill="url(#paint0_linear_283_395)" stroke="url(#paint1_linear_283_395)" stroke-width="4"/>
<path id="Subtract" fill-rule="evenodd" clip-rule="evenodd" d="M11.8228 40.2158H138.178V39.2158H11.8228V40.2158ZM12.9312 113.369H138.178V112.369H12.9312V113.369Z" fill="white" fill-opacity="0.22"/>
<circle id="Ellipse 1921" cx="75.0002" cy="74.999" r="73" stroke="url(#paint2_linear_283_395)" stroke-width="4"/>
</g>
<g id="Vector">
<path d="M92.6935 108.62H58.0457C49.263 108.62 42.1184 101.475 42.1184 92.6945V58.0423C42.1184 49.2618 49.263 42.1172 58.0457 42.1172H92.6957C101.476 42.1172 108.621 49.2618 108.621 58.0423V92.6945C108.621 101.475 101.476 108.62 92.6935 108.62ZM58.0457 46.5507C54.9987 46.5536 52.0772 47.7652 49.9224 49.9196C47.7676 52.074 46.5554 54.9952 46.5519 58.0423V92.6945C46.5554 95.7416 47.7676 98.6628 49.9224 100.817C52.0772 102.972 54.9987 104.183 58.0457 104.186H92.6957C95.7424 104.183 98.6633 102.971 100.818 100.816C102.972 98.6621 104.184 95.7412 104.187 92.6945V58.0423C104.184 54.9952 102.972 52.074 100.817 49.9196C98.6621 47.7652 95.7406 46.5536 92.6935 46.5507H58.0457Z" fill="url(#paint3_linear_283_395)"/>
<path d="M74.2613 64.2846C73.6733 64.2846 73.1095 64.5182 72.6938 64.9339C72.2781 65.3496 72.0445 65.9135 72.0445 66.5014V75.3684C72.0445 79.0349 69.5595 82.0186 66.5026 82.0186C63.4457 82.0186 60.9608 79.0349 60.9608 75.3684V66.5014C60.9608 65.2844 59.961 64.2846 58.744 64.2846C57.527 64.2846 56.5273 65.2844 56.5273 66.5014V75.3684C56.5273 81.4799 61.0029 86.4521 66.5026 86.4521C72.0024 86.4521 76.478 81.4799 76.478 75.3684V66.5014C76.478 65.9135 76.2445 65.3496 75.8287 64.9339C75.413 64.5182 74.8492 64.2846 74.2613 64.2846ZM89.0669 75.3684L93.8751 67.6763C94.1665 67.1786 94.2526 66.5869 94.1149 66.0268C93.9772 65.4667 93.6266 64.9823 93.1376 64.6765C92.6486 64.3707 92.0596 64.2675 91.4958 64.3889C90.9319 64.5102 90.4376 64.8466 90.1177 65.3265L86.4534 71.1876L82.7913 65.3287C82.6415 65.0728 82.4418 64.8496 82.2041 64.6723C81.9665 64.495 81.6956 64.3671 81.4077 64.2963C81.1197 64.2256 80.8205 64.2133 80.5277 64.2602C80.2349 64.3071 79.9545 64.4123 79.7031 64.5695C79.4517 64.7267 79.2344 64.9328 79.064 65.1755C78.8937 65.4182 78.7738 65.6927 78.7114 65.9825C78.649 66.2724 78.6454 66.5719 78.7008 66.8632C78.7562 67.1545 78.8695 67.4317 79.0339 67.6785L83.8398 75.3684L79.0317 83.0605C78.7223 83.5594 78.6225 84.1604 78.7541 84.7325C78.8857 85.3047 79.2381 85.8016 79.7344 86.1152C80.2338 86.4238 80.8347 86.5229 81.4067 86.3909C81.9787 86.2589 82.4755 85.9065 82.7891 85.4102L86.4534 79.5492L90.1154 85.408C90.7605 86.4388 92.1393 86.758 93.1701 86.113C94.2009 85.4679 94.5179 84.0891 93.8728 83.0583L89.0669 75.3684Z" fill="url(#paint4_linear_283_395)"/>
</g>
</g>
<defs>
<linearGradient id="paint0_linear_283_395" x1="75.0002" y1="-0.000976563" x2="75.0002" y2="149.999" gradientUnits="userSpaceOnUse">
<stop stop-color="#EC7D43"/>
<stop offset="1" stop-color="#F3BD78" stop-opacity="0"/>
</linearGradient>
<linearGradient id="paint1_linear_283_395" x1="0.000183105" y1="74.999" x2="150" y2="74.999" gradientUnits="userSpaceOnUse">
<stop stop-color="#F6D58C"/>
<stop offset="0.31" stop-color="#F3BD78"/>
<stop offset="0.97" stop-color="#EC8045"/>
<stop offset="1" stop-color="#EC7D43"/>
</linearGradient>
<linearGradient id="paint2_linear_283_395" x1="0.000183105" y1="74.999" x2="150" y2="74.999" gradientUnits="userSpaceOnUse">
<stop stop-color="#F6D58C"/>
<stop offset="0.31" stop-color="#F3BD78"/>
<stop offset="0.97" stop-color="#EC8045"/>
<stop offset="1" stop-color="#EC7D43"/>
</linearGradient>
<linearGradient id="paint3_linear_283_395" x1="75.3696" y1="42.1172" x2="75.3696" y2="108.62" gradientUnits="userSpaceOnUse">
<stop stop-color="#FFB995"/>
<stop offset="1" stop-color="#F3BD78" stop-opacity="0"/>
</linearGradient>
<linearGradient id="paint4_linear_283_395" x1="75.3696" y1="42.1172" x2="75.3696" y2="108.62" gradientUnits="userSpaceOnUse">
<stop stop-color="#FFB995"/>
<stop offset="1" stop-color="#F3BD78" stop-opacity="0"/>
</linearGradient>
</defs>
</svg>
