<svg width="100" height="81" viewBox="0 0 100 81" fill="none" xmlns="http://www.w3.org/2000/svg">
<path d="M37.1875 47.1953H46.3594L49.8438 42.4766H40.6719L37.1875 47.1953ZM0 44.3359V45.3359H12.7812L13.5156 44.3359H0ZM27.0156 42.4766C25.6562 42.4766 26.0781 41.9141 26.2969 41.6172C26.7344 41.0234 27.4844 39.9922 27.9219 39.4141C28.3594 38.8359 28.3594 38.4922 27.4844 38.4922H19.5156L13.0938 47.2109H28.7344C33.9062 47.2109 36.7812 43.6953 37.6719 42.4766H27.0156ZM76.625 41.3984L82.7656 33.0547H73.0469L66.9062 41.3984H76.625ZM14.8906 42.4766H0V43.4766H14.1562L14.8906 42.4766ZM32.2344 38.3203C31.7969 38.9141 31.0625 39.9453 30.625 40.5391C30.4062 40.8516 29.9844 41.3984 31.3438 41.3984H38.4688C38.4688 41.3984 39.6094 39.8359 40.5781 38.5234C41.8906 36.7422 40.6875 33.0547 36.0156 33.0547H17.5938L14.4062 37.3984H31.8125C32.6875 37.3984 32.6719 37.7422 32.2344 38.3203ZM0 47.1953H11.4219L12.1562 46.1953H0V47.1953ZM50.4688 47.1953H59.6406L63.125 42.4766H53.9531C53.9375 42.4766 50.4688 47.1953 50.4688 47.1953ZM85.1562 47.2109H100V46.2109H85.8906L85.1562 47.2109ZM88.6406 42.4766L87.9062 43.4766H100V42.4766H88.6406ZM86.5312 45.3359H100V44.3359H87.2656L86.5312 45.3359ZM60.875 33.0547L57.3594 37.8359H53.2656L56.7812 33.0547H47.6094L41.4688 41.3984H63.9062L70.0469 33.0547H60.875ZM66.1094 42.4766C66.1094 42.4766 65.4375 43.3984 65.1094 43.8359C63.9531 45.3984 64.9688 47.2109 68.7344 47.2109H83.4688L86.9531 42.4766H66.1094Z" fill="#9CA3AF"/>
</svg>
