<svg width="100" height="81" viewBox="0 0 100 81" fill="none" xmlns="http://www.w3.org/2000/svg">
<path d="M94.6875 29.7422L86.125 46.914L77.5469 29.7422H71.6875L73.3906 32.9609C71.5937 29.9922 67.7812 28.8984 63.5 28.8984C58.5312 28.8984 52.8906 30.2578 52.3281 35.6328H57.5937C57.8125 33.4765 60.0469 32.2265 63.0625 32.2265C67.125 32.2265 69.4687 33.7265 69.4687 37.3828V37.914C67.4844 37.914 65.0937 37.9297 62.9531 37.9765C56.3281 38.1172 52.0781 39.539 50.9687 43.3515C51.125 42.539 51.2031 41.6953 51.2031 40.8203C51.2031 32.6797 45 28.914 39.4219 28.914C36.0937 28.914 32.7031 29.7734 30.25 32.6953V20.1016H25.2344V46.5859C25.2344 48.1953 25.1406 50.164 25.0625 51.7578H29.9844C30.0937 50.7734 30.1562 49.7421 30.1562 48.7109C32.2812 51.3046 35.6875 52.6015 39.3281 52.6015C45.0937 52.6015 49.4687 49.1796 50.7812 44.1328C50.7031 44.5703 50.6719 45.039 50.6719 45.539C50.6719 49.3046 53.9687 52.5703 60.1406 52.5703C64.2969 52.5703 67.2969 51.6796 69.8125 48.5859C69.8125 49.6171 69.8594 50.664 69.9844 51.7421H74.6406C74.5312 50.4609 74.4844 49.0078 74.4844 47.5546V37.3047C74.4844 35.8515 74.2187 34.6172 73.7344 33.5859L83.3437 51.7265L78.8906 60.1796H84.5L100 29.7422H94.6875ZM38.0781 49.164C33.4531 49.164 30.2344 45.8046 30.2344 40.7578C30.2344 35.6953 33.4531 32.3515 38.0781 32.3515C42.7344 32.3515 45.9219 35.6953 45.9219 40.7578C45.9219 45.8046 42.7344 49.164 38.0781 49.164ZM69.4687 41.7734C69.4687 46.4609 66.6719 49.3359 61.4062 49.3359C57.4844 49.3359 55.9375 47.2421 55.9375 45.3047C55.9375 42.3203 58.7656 41.4922 63.3125 41.3515C65.3594 41.2734 67.625 41.2578 69.4687 41.2578V41.7734ZM5.10937 42.0234H25.2344V40.6953C25.2344 32.6172 20.0625 28.914 12.9844 28.914C4.10937 28.914 0.015625 33.7265 0.015625 41.039C0.015625 47.6796 3.96875 52.6015 12.9062 52.6015C17.8125 52.6015 23.5312 50.7734 24.5312 45.3984H19.3594C17.4844 50.9921 5.65625 51.1328 5.10937 42.0234ZM19.9531 38.6797H5.20312C6.28125 29.8359 19.5937 30.1328 19.9531 38.6797Z" fill="#9CA3AF"/>
</svg>
