<svg width="100" height="81" viewBox="0 0 100 81" fill="none" xmlns="http://www.w3.org/2000/svg">
<g clip-path="url(#clip0_334_608)">
<path d="M99.9844 39.9145C99.8125 38.2426 98.3125 38.852 98.3125 38.852C98.3125 38.852 95.875 40.7426 93.7344 40.5239C91.5937 40.3207 92.2656 35.5239 92.2656 35.5239C92.2656 35.5239 92.7344 31.1332 91.4687 30.7739C90.2031 30.3989 88.6562 31.9145 88.6562 31.9145C88.6562 31.9145 86.7187 34.0551 85.7969 36.7895L85.5469 36.8676C85.5469 36.8676 85.8437 32.0864 85.5 30.9926C85.25 30.4457 82.9375 30.4926 82.5625 31.4614C82.1875 32.4301 80.3437 39.1489 80.2187 41.9614C80.2187 41.9614 76.6093 45.0239 73.4531 45.5239C70.2968 46.0239 69.5468 44.0551 69.5468 44.0551C69.5468 44.0551 78.1093 41.6645 77.8125 34.8207C77.5156 27.977 70.9062 30.5082 70.1562 31.0707C69.4375 31.6176 65.5625 33.9457 64.4375 40.3989C64.4062 40.6176 64.3281 41.5707 64.3281 41.5707C64.3281 41.5707 61.0156 43.7895 59.1718 44.3832C59.1718 44.3832 64.3281 35.6957 58.0312 31.7426C56.25 30.6801 54.7031 31.6645 53.7812 32.5707C55.9062 29.8676 61.0312 22.5395 59.5468 16.1333C58.6406 12.3208 56.7343 11.8989 54.9843 12.5239C52.3281 13.5708 51.3125 15.1333 51.3125 15.1333C51.3125 15.1333 47.875 20.1333 47.0781 27.5551C46.2812 34.977 45.1093 43.977 45.1093 43.977C45.1093 43.977 43.4687 45.5707 41.9531 45.6489C40.4375 45.727 41.1093 41.1645 41.1093 41.1645C41.1093 41.1645 42.2812 34.1957 42.2031 33.0239C42.125 31.852 42.0312 31.2114 40.6562 30.8051C39.2656 30.3832 37.7656 32.1489 37.7656 32.1489C37.7656 32.1489 33.7812 38.1957 33.4375 39.1176L33.2343 39.4926L33.0312 39.2426C33.0312 39.2426 35.8437 31.0082 33.1562 30.8832C30.4687 30.7582 28.7031 33.8207 28.7031 33.8207C28.7031 33.8207 25.6406 38.9457 25.5156 39.5239L25.3125 39.2739C25.3125 39.2739 26.5781 33.3051 26.3125 31.8364C26.0625 30.3676 24.6718 30.6645 24.6718 30.6645C24.6718 30.6645 22.9062 30.4614 22.4531 31.5864C22 32.7114 20.3125 40.227 20.1093 42.6332C20.1093 42.6332 15.7031 45.7895 12.7968 45.8207C9.90621 45.8676 10.1875 43.977 10.1875 43.977C10.1875 43.977 20.8125 40.3364 17.9062 33.1645C16.6093 31.3207 15.0937 30.7426 12.9531 30.7739C10.8125 30.8207 8.21871 32.1176 6.49996 35.977C5.67183 37.8207 5.43746 39.5707 5.28121 40.8989C5.28121 40.8989 3.35933 41.2739 2.34371 40.4457C1.32808 39.6176 0.781208 40.4457 0.781208 40.4457C0.781208 40.4457 -0.968793 42.6332 0.765583 43.3051C2.49996 43.977 5.15621 44.2582 5.15621 44.2582C5.40621 45.4301 6.12496 47.3051 8.21871 48.8989C11.375 51.2895 17.4062 48.6957 17.4062 48.6957L19.8906 47.3207C19.8906 47.3207 19.9687 49.602 21.7812 49.9301C23.5937 50.2582 24.3437 50.0864 27.4843 42.4457C29.3281 38.5395 29.4531 38.7582 29.4531 38.7582L29.6562 38.7114C29.6562 38.7114 28.2343 46.0239 28.7812 48.0395C29.3281 50.0395 31.7187 49.8207 31.7187 49.8207C31.7187 49.8207 33.0156 50.1957 34.0625 46.5082C35.1093 42.8207 37.125 38.7114 37.125 38.7114H37.375C37.375 38.7114 36.5 46.227 37.8437 48.6645C39.1875 51.102 42.6718 49.4926 42.6718 49.4926C42.6718 49.4926 45.1093 48.2739 45.4843 47.8989C45.4843 47.8989 48.375 50.3676 52.4531 49.9145C61.5625 48.1176 64.8125 45.8676 64.8125 45.8676C64.8125 45.8676 66.375 49.6801 71.2343 50.0395C76.7812 50.4614 79.7969 47.1332 79.7969 47.1332C79.7969 47.1332 79.75 49.2426 81.6875 50.0395C83.625 50.8364 84.9219 46.477 84.9219 46.477L88.1562 37.5395H88.4531C88.4531 37.5395 88.625 43.3676 91.8125 44.2895C95 45.2114 99.1562 42.1489 99.1562 42.1489C99.1562 42.1489 100.156 41.602 99.9844 39.9145ZM9.67183 40.7426C9.79683 35.7426 13.0781 33.5707 14.2031 34.6489C15.3437 35.7426 14.9218 38.0864 12.7812 39.5551C10.6406 41.0395 9.67183 40.7426 9.67183 40.7426ZM52.2968 21.3989C52.2968 21.3989 55.2812 13.6333 55.9843 17.4145C56.6875 21.1958 49.7343 32.4457 49.7343 32.4457C49.8125 29.9145 52.2968 21.3989 52.2968 21.3989ZM55.8593 43.0239C53.8906 48.1801 49.0937 46.0864 49.0937 46.0864C49.0937 46.0864 48.5468 44.2426 50.0937 39.0707C51.6406 33.8989 55.2968 35.9145 55.2968 35.9145C55.2968 35.9145 57.8281 37.852 55.8593 43.0239ZM69.0781 40.7426C69.0781 40.7426 68.6093 39.102 70.3437 35.9614C72.0625 32.8051 73.4062 34.5395 73.4062 34.5395C73.4062 34.5395 74.875 36.1332 73.2031 38.5239C71.5312 40.9145 69.0781 40.7426 69.0781 40.7426Z" fill="#9CA3AF"/>
</g>
<defs>
<clipPath id="clip0_334_608">
<rect width="100" height="79.9999" fill="white" transform="translate(0 0.132812)"/>
</clipPath>
</defs>
</svg>
