<svg width="100" height="81" viewBox="0 0 100 81" fill="none" xmlns="http://www.w3.org/2000/svg">
<path d="M91.5625 44.5859L99.8906 35.2266H90.1406L86.75 39.1015L83.2344 35.2266H64.6875V32.7266H73.4531V25.2109H49.8281V37.0078H49.75C48.25 35.289 46.3906 34.6953 44.2188 34.6953C39.7812 34.6953 36.4375 37.7265 35.2656 41.7109C32.4531 32.4297 20.0469 32.7109 16.2188 39.5234V35.7422H7.65625V31.6484H17.0312V25.2266H0V54.039H7.65625V41.9297H15.2969C15.0625 42.8203 14.9375 43.7734 14.9375 44.7734C14.9375 56.1953 30.9688 59.0546 35.2812 48.4765H28.7188C26.4219 51.7422 21.5625 49.8672 21.5625 46.1953H34.9219C35.5 50.9609 39.2031 55.0859 44.3125 55.0859C46.5156 55.0859 48.5312 54.0078 49.7656 52.1797H49.8438V54.039H83L86.4531 50.1328L89.9375 54.039H100L91.5625 44.5859ZM21.7656 41.9922C22.7188 37.8828 28.2812 37.9922 29.0312 41.9922H21.7656ZM45.7344 49.6328C40.3281 49.6328 40.4219 39.8203 45.7344 39.8203C50.8281 39.8203 51.125 49.6328 45.7344 49.6328ZM71.9531 52.6171H57.2031V26.6016H72.0469V31.3203H63.2812V36.6172H71.9531V41.0078H63.1875V47.9922H71.9531V52.6171ZM64.7812 46.3984V42.5859H73.5469V35.7109L81.4688 44.6172L73.5469 53.5234V46.3984H64.7812ZM86.4375 48.0078L82.3594 52.6171H76.4062L83.5312 44.6172L76.4062 36.6172H82.6094L86.7656 41.1953L90.7656 36.6172H96.7812L89.6875 44.5859L96.875 52.6171H90.5469L86.4375 48.0078Z" fill="#9CA3AF"/>
</svg>
