<svg width="463" height="146" viewBox="0 0 463 146" fill="none" xmlns="http://www.w3.org/2000/svg">
<path d="M73.3872 0H73.3836C32.855 0 0 32.6824 0 72.9982V73.0018C0 113.318 32.855 146 73.3836 146H73.3872C113.916 146 146.771 113.318 146.771 73.0018V72.9982C146.771 32.6824 113.916 0 73.3872 0Z" fill="white"/>
<path d="M38.2012 56.4341V88.2175H31.0451L19.7872 69.0024V88.2281H12.9531V56.4341H20.3357L31.4096 75.2972V56.4341H38.2012Z" fill="black"/>
<path d="M62.5433 69.3545L73.6137 88.2175H65.6896L57.6664 74.4874L56.4383 75.7583V88.2281H49.6008V56.4341H56.4383V65.9114L65.5056 56.4341H74.9409L62.5433 69.3545Z" fill="black"/>
<path d="M113.73 88.2175H106.623L104.432 81.099L101.573 71.7132H101.527L100.157 67.1788L98.3875 72.7095L95.1492 82.9578H95.1952L93.5566 88.2175H86.3864L90.5342 75.1915L96.5047 56.5573H103.795L113.73 88.2175Z" fill="black"/>
<path d="M125.133 64.1863V56.4799H131.967V64.1863H125.133ZM125.133 70.4423H131.967V88.2175H125.133V70.4423Z" fill="black"/>
<path d="M412.562 74.9873C412.562 62.5183 402.401 52.4102 389.866 52.4102C377.331 52.4102 367.169 62.5183 367.169 74.9873C367.169 87.4564 377.331 97.5645 389.866 97.5645C402.401 97.5645 412.562 87.4564 412.562 74.9873Z" fill="url(#paint0_linear_74_32668)"/>
<path d="M186.607 58.6767L183.043 65.679C183.043 65.679 179.196 63.0175 175.208 63.0175C172.206 63.0175 170.607 64.3694 170.607 66.4712C170.607 68.5729 174.266 70.1572 178.676 72.0231C182.99 73.8432 187.729 77.4869 187.729 82.5248C187.729 91.7204 180.693 94.9382 173.141 94.9382C164.084 94.9382 158.595 89.851 158.595 89.851L163.008 82.479C163.008 82.479 168.168 86.8198 172.482 86.8198C174.408 86.8198 178.067 86.6333 178.067 83.0388C178.067 80.2224 173.937 78.9796 169.34 76.7018C164.742 74.4241 161.975 70.8225 161.975 66.8091C161.975 59.6237 168.345 55.047 174.595 55.047C178.869 55.0707 183.043 56.332 186.607 58.6767Z" fill="white"/>
<path d="M219.425 94.2376H210.616V55.7371H219.425V94.2376Z" fill="white"/>
<path d="M252.647 86.5382H265.972V94.2376H243.845V55.7371H252.665L252.647 86.5382Z" fill="white"/>
<path d="M297.912 94.2376H289.093V55.7371H297.912V94.2376Z" fill="white"/>
<path d="M348.996 83.926L352.751 91.393C352.751 91.393 348.433 94.9382 340.035 94.9382C329.106 94.9382 319.066 86.0735 319.066 75.0578C319.066 64.042 329.057 55.0365 340.035 55.0365C348.433 55.0365 352.751 58.5852 352.751 58.5852L348.996 66.0522C346.763 64.5138 344.114 63.6841 341.398 63.6724C332.528 63.6724 328.635 69.8333 328.635 74.9627C328.635 80.1449 332.528 86.3059 341.398 86.3059C344.114 86.2941 346.763 85.4644 348.996 83.926Z" fill="white"/>
<path d="M438.327 94.2376H429.507V55.7371H438.327L453.715 79.6309H453.807V55.7371H462.626V94.2376H453.807L438.419 70.3437H438.327V94.2376Z" fill="white"/>
<defs>
<linearGradient id="paint0_linear_74_32668" x1="367.169" y1="74.9873" x2="412.562" y2="74.9873" gradientUnits="userSpaceOnUse">
<stop stop-color="#F6D58C"/>
<stop offset="0.31" stop-color="#F3BD78"/>
<stop offset="0.97" stop-color="#EC8045"/>
<stop offset="1" stop-color="#EC7D43"/>
</linearGradient>
</defs>
</svg>
