<svg width="752" height="238" viewBox="0 0 752 238" fill="none" xmlns="http://www.w3.org/2000/svg">
<path d="M119.631 0H119.625C53.5581 0 0 53.2768 0 118.997V119.003C0 184.723 53.5581 238 119.625 238H119.631C185.698 238 239.256 184.723 239.256 119.003V118.997C239.256 53.2768 185.698 0 119.631 0Z" fill="black"/>
<path d="M47.7287 99.0329L59.5582 136.977H51.0931L48.4884 128.442L45.0698 117.19H45.0155L43.3876 111.753L41.2713 118.386L37.4186 130.671H37.4729L35.5194 136.977H27L31.938 121.375L39.0465 99.0329H47.7287Z" fill="white"/>
<path d="M98.8556 122.517H89.6851V115.015H98.8556V122.517ZM73.1347 99.0329H98.8556V106.535H81.2742V136.977H73.1347V99.0329Z" fill="white"/>
<path d="M142.494 112.46C142.494 117.788 139.293 122.408 134.626 124.637L141.734 136.977H132.401L126.107 125.996H120.626V137.032H112.486V118.114H128.494C131.75 118.114 134.355 115.559 134.355 112.46C134.355 109.307 131.75 106.752 128.494 106.752H112.486V98.9241H128.494C136.2 98.9241 142.494 105.013 142.494 112.46Z" fill="white"/>
<path d="M164.217 108.166H156.077V98.9241H164.217V108.166ZM156.077 136.977V115.668H164.217V136.977H156.077Z" fill="white"/>
<path d="M207.845 102.893C211.209 106.1 213 110.286 213 114.798V121.375C213 125.833 211.209 130.073 207.845 133.226C206.054 134.966 203.992 136.271 201.713 137.086V128.116C203.667 126.431 204.86 124.039 204.86 121.375V114.798C204.86 109.796 200.628 105.719 195.419 105.719C190.155 105.719 185.922 109.796 185.922 114.798V121.375C185.922 124.039 187.171 126.485 189.124 128.116V137.086C186.845 136.271 184.729 134.966 182.938 133.226C179.628 130.073 177.783 125.833 177.783 121.375V114.798C177.783 110.286 179.628 106.1 182.938 102.893C186.248 99.7396 190.698 98 195.419 98C200.085 98 204.535 99.7396 207.845 102.893ZM198.729 141H192.109V119.799H198.729V141Z" fill="white"/>
<path d="M315.92 92.4028L310.11 103.818C310.11 103.818 303.839 99.479 297.337 99.479C292.445 99.479 289.837 101.683 289.837 105.109C289.837 108.535 295.803 111.118 302.991 114.159C310.024 117.126 317.749 123.066 317.749 131.278C317.749 146.269 306.28 151.514 293.968 151.514C279.205 151.514 270.256 143.221 270.256 143.221L277.451 131.204C277.451 131.204 285.862 138.28 292.895 138.28C296.033 138.28 301.999 137.976 301.999 132.116C301.999 127.525 295.266 125.499 287.772 121.786C280.278 118.073 275.766 112.202 275.766 105.66C275.766 93.9466 286.151 86.486 296.339 86.486C303.305 86.5246 310.109 88.5806 315.92 92.4028Z" fill="black"/>
<path d="M363.109 150.381H348.749V87.6194H363.109V150.381Z" fill="black"/>
<path d="M408.457 137.829H430.178V150.381H394.109V87.6194H408.486L408.457 137.829Z" fill="black"/>
<path d="M475.555 150.381H461.178V87.6194H475.555V150.381Z" fill="black"/>
<path d="M555.345 133.571L561.467 145.744C561.467 145.744 554.428 151.523 540.738 151.523C522.922 151.523 506.555 137.072 506.555 119.115C506.555 101.158 522.842 86.4774 540.738 86.4774C554.428 86.4774 561.467 92.2622 561.467 92.2622L555.345 104.435C551.705 101.927 547.387 100.574 542.959 100.555C528.501 100.555 522.155 110.598 522.155 118.96C522.155 127.408 528.501 137.451 542.959 137.451C547.387 137.432 551.705 136.079 555.345 133.571Z" fill="black"/>
<path d="M666.463 119C666.463 98.6738 649.898 82.1961 629.465 82.1961C609.031 82.1961 592.467 98.6738 592.467 119C592.467 139.326 609.031 155.804 629.465 155.804C649.898 155.804 666.463 139.326 666.463 119Z" fill="url(#paint0_linear_112_150)"/>
<path d="M711.84 150.381H697.463V87.6194H711.84L736.925 126.57H737.075V87.6194H751.452V150.381H737.075L711.99 111.43H711.84V150.381Z" fill="black"/>
<defs>
<linearGradient id="paint0_linear_112_150" x1="592.467" y1="119" x2="666.463" y2="119" gradientUnits="userSpaceOnUse">
<stop stop-color="#F6D58C"/>
<stop offset="0.31" stop-color="#F3BD78"/>
<stop offset="0.97" stop-color="#EC8045"/>
<stop offset="1" stop-color="#EC7D43"/>
</linearGradient>
</defs>
</svg>
