<svg width="752" height="238" viewBox="0 0 752 238" fill="none" xmlns="http://www.w3.org/2000/svg">
<path d="M119.631 0H119.625C53.5581 0 0 53.2768 0 118.997V119.003C0 184.723 53.5581 238 119.625 238H119.631C185.698 238 239.256 184.723 239.256 119.003V118.997C239.256 53.2768 185.698 0 119.631 0Z" fill="black"/>
<path d="M62.2733 91.9957V143.807H50.6079L32.2559 112.484V143.824H21.1155V91.9957H33.1501L51.2021 122.745V91.9957H62.2733Z" fill="white"/>
<path d="M101.954 113.058L120.001 143.807H107.083L94.0043 121.425L92.0024 123.497V143.824H80.8562V91.9957H92.0024V107.445L106.783 91.9957H122.164L101.954 113.058Z" fill="white"/>
<path d="M185.395 143.806H173.81L170.239 132.202L165.578 116.902H165.503L163.27 109.51L160.385 118.526L155.106 135.232H155.181L152.51 143.806H140.822L147.583 122.572L157.316 92.1959H169.201L185.395 143.806Z" fill="white"/>
<path d="M203.983 104.632V92.0698H215.123V104.632H203.983ZM203.983 114.831H215.123V143.806H203.983V114.831Z" fill="white"/>
<path d="M315.92 92.4028L310.11 103.818C310.11 103.818 303.839 99.479 297.337 99.479C292.445 99.479 289.837 101.683 289.837 105.109C289.837 108.535 295.803 111.118 302.991 114.159C310.024 117.126 317.749 123.066 317.749 131.278C317.749 146.269 306.28 151.514 293.968 151.514C279.205 151.514 270.256 143.221 270.256 143.221L277.451 131.204C277.451 131.204 285.862 138.28 292.895 138.28C296.033 138.28 301.999 137.976 301.999 132.116C301.999 127.525 295.266 125.499 287.772 121.786C280.278 118.073 275.766 112.202 275.766 105.66C275.766 93.9466 286.151 86.486 296.339 86.486C303.305 86.5246 310.109 88.5806 315.92 92.4028Z" fill="black"/>
<path d="M363.109 150.381H348.749V87.6194H363.109V150.381Z" fill="black"/>
<path d="M408.457 137.829H430.178V150.381H394.109V87.6194H408.486L408.457 137.829Z" fill="black"/>
<path d="M475.555 150.381H461.178V87.6194H475.555V150.381Z" fill="black"/>
<path d="M555.345 133.571L561.467 145.744C561.467 145.744 554.428 151.523 540.738 151.523C522.922 151.523 506.555 137.072 506.555 119.115C506.555 101.158 522.842 86.4774 540.738 86.4774C554.428 86.4774 561.467 92.2622 561.467 92.2622L555.345 104.435C551.705 101.927 547.387 100.574 542.959 100.555C528.501 100.555 522.155 110.598 522.155 118.96C522.155 127.408 528.501 137.451 542.959 137.451C547.387 137.432 551.705 136.079 555.345 133.571Z" fill="black"/>
<path d="M666.463 119C666.463 98.6738 649.898 82.1961 629.465 82.1961C609.031 82.1961 592.467 98.6738 592.467 119C592.467 139.326 609.031 155.804 629.465 155.804C649.898 155.804 666.463 139.326 666.463 119Z" fill="url(#paint0_linear_112_150)"/>
<path d="M711.84 150.381H697.463V87.6194H711.84L736.925 126.57H737.075V87.6194H751.452V150.381H737.075L711.99 111.43H711.84V150.381Z" fill="black"/>
<defs>
<linearGradient id="paint0_linear_112_150" x1="592.467" y1="119" x2="666.463" y2="119" gradientUnits="userSpaceOnUse">
<stop stop-color="#F6D58C"/>
<stop offset="0.31" stop-color="#F3BD78"/>
<stop offset="0.97" stop-color="#EC8045"/>
<stop offset="1" stop-color="#EC7D43"/>
</linearGradient>
</defs>
</svg>
