<svg width="752" height="238" viewBox="0 0 752 238" fill="none" xmlns="http://www.w3.org/2000/svg">
<g clip-path="url(#clip0_205_248)">
<path d="M119.204 0H119.198C53.3667 0 0 53.0865 0 118.572V118.578C0 184.063 53.3667 237.15 119.198 237.15H119.204C185.035 237.15 238.402 184.063 238.402 118.578V118.572C238.402 53.0865 185.035 0 119.204 0Z" fill="white"/>
<path d="M47.7287 99.0329L59.5582 136.977H51.0931L48.4884 128.442L45.0698 117.19H45.0155L43.3876 111.753L41.2713 118.386L37.4186 130.671H37.4729L35.5194 136.977H27L31.938 121.375L39.0465 99.0329H47.7287Z" fill="black"/>
<path d="M98.8556 122.517H89.6851V115.015H98.8556V122.517ZM73.1347 99.0329H98.8556V106.535H81.2742V136.977H73.1347V99.0329Z" fill="black"/>
<path d="M142.494 112.46C142.494 117.788 139.293 122.408 134.626 124.637L141.734 136.977H132.401L126.107 125.996H120.626V137.032H112.486V118.114H128.494C131.75 118.114 134.355 115.559 134.355 112.46C134.355 109.307 131.75 106.752 128.494 106.752H112.486V98.9241H128.494C136.2 98.9241 142.494 105.013 142.494 112.46Z" fill="black"/>
<path d="M164.217 108.166H156.077V98.9241H164.217V108.166ZM156.077 136.977V115.668H164.217V136.977H156.077Z" fill="black"/>
<path d="M207.845 102.893C211.209 106.1 213 110.286 213 114.798V121.375C213 125.833 211.209 130.073 207.845 133.226C206.054 134.966 203.992 136.271 201.713 137.086V128.116C203.667 126.431 204.86 124.039 204.86 121.375V114.798C204.86 109.796 200.628 105.719 195.419 105.719C190.155 105.719 185.922 109.796 185.922 114.798V121.375C185.922 124.039 187.171 126.485 189.124 128.116V137.086C186.845 136.271 184.729 134.966 182.938 133.226C179.628 130.073 177.783 125.833 177.783 121.375V114.798C177.783 110.286 179.628 106.1 182.938 102.893C186.248 99.7396 190.698 98 195.419 98C200.085 98 204.535 99.7396 207.845 102.893ZM198.729 141H192.109V119.799H198.729V141Z" fill="black"/>
<path d="M669.924 118.575C669.924 98.3212 653.418 81.9024 633.058 81.9024C612.697 81.9024 596.192 98.3212 596.192 118.575C596.192 138.828 612.697 155.247 633.058 155.247C653.418 155.247 669.924 138.828 669.924 118.575Z" fill="url(#paint0_linear_205_248)"/>
<path d="M302.902 92.0813L297.113 103.455C297.113 103.455 290.864 99.1321 284.386 99.1321C279.511 99.1321 276.912 101.328 276.912 104.742C276.912 108.156 282.857 110.729 290.019 113.76C297.027 116.716 304.724 122.635 304.724 130.818C304.724 145.755 293.296 150.981 281.029 150.981C266.318 150.981 257.402 142.718 257.402 142.718L264.57 130.744C264.57 130.744 272.952 137.795 279.959 137.795C283.087 137.795 289.031 137.491 289.031 131.653C289.031 127.078 282.322 125.06 274.854 121.36C267.387 117.66 262.892 111.81 262.892 105.291C262.892 93.6196 273.239 86.1856 283.391 86.1856C290.332 86.224 297.112 88.2727 302.902 92.0813Z" fill="white"/>
<path d="M356.209 149.843H341.901V87.3064H356.209V149.843Z" fill="white"/>
<path d="M410.172 137.337H431.815V149.843H395.875V87.3064H410.2L410.172 137.337Z" fill="white"/>
<path d="M483.696 149.843H469.371V87.3064H483.696V149.843Z" fill="white"/>
<path d="M566.673 133.094L572.772 145.223C572.772 145.223 565.759 150.981 552.117 150.981C534.365 150.981 518.056 136.582 518.056 118.689C518.056 100.796 534.285 86.1684 552.117 86.1684C565.759 86.1684 572.772 91.9326 572.772 91.9326L566.673 104.061C563.045 101.563 558.742 100.215 554.33 100.196C539.924 100.196 533.601 110.203 533.601 118.535C533.601 126.952 539.924 136.96 554.33 136.96C558.742 136.941 563.045 135.593 566.673 133.094Z" fill="white"/>
<path d="M711.774 149.843H697.448V87.3064H711.774L736.769 126.117H736.918V87.3064H751.244V149.843H736.918L711.923 111.032H711.774V149.843Z" fill="white"/>
</g>
<defs>
<linearGradient id="paint0_linear_205_248" x1="596.192" y1="118.575" x2="669.924" y2="118.575" gradientUnits="userSpaceOnUse">
<stop stop-color="#F6D58C"/>
<stop offset="0.31" stop-color="#F3BD78"/>
<stop offset="0.97" stop-color="#EC8045"/>
<stop offset="1" stop-color="#EC7D43"/>
</linearGradient>
<clipPath id="clip0_205_248">
<rect width="751.244" height="237.15" fill="white"/>
</clipPath>
</defs>
</svg>
